<?xml version="1.0" encoding="UTF-8" standalone="no"?>
<!DOCTYPE svg PUBLIC "-//W3C//DTD SVG 1.1//EN"
 "http://www.w3.org/Graphics/SVG/1.1/DTD/svg11.dtd">
<!-- Generated by graphviz version 2.43.0 (0)
 -->
<!-- Title: EquationTree Pages: 1 -->
<svg width="3254pt" height="791pt"
 viewBox="0.00 0.00 3253.53 791.41" xmlns="http://www.w3.org/2000/svg" xmlns:xlink="http://www.w3.org/1999/xlink">
<g id="graph0" class="graph" transform="scale(1 1) rotate(0) translate(4 787.41)">
<title>EquationTree</title>
<polygon fill="white" stroke="transparent" points="-4,4 -4,-787.41 3249.53,-787.41 3249.53,4 -4,4"/>
<!-- node0 -->
<g id="node1" class="node">
<title>node0</title>
<ellipse fill="#cfe2ff" stroke="black" cx="2312.12" cy="-762.2" rx="188.18" ry="21.43"/>
<text text-anchor="middle" x="2312.12" y="-757.2" font-family="Helvetica,sans-Serif" font-size="20.00">OPERATOR::CONNECTOR</text>
</g>
<!-- node1 -->
<g id="node2" class="node">
<title>node1</title>
<polygon fill="#d4f8d4" stroke="black" points="1998.12,-686.77 1950.71,-668.77 1998.12,-650.77 2045.52,-668.77 1998.12,-686.77"/>
<text text-anchor="middle" x="1998.12" y="-666.27" font-family="Helvetica,sans-Serif" font-size="10.00">factorial</text>
</g>
<!-- node0&#45;&gt;node1 -->
<g id="edge34" class="edge">
<title>node0&#45;&gt;node1</title>
<path fill="none" stroke="#0c0ccc" d="M2247.06,-742.25C2181.41,-723.14 2082.65,-694.38 2031.49,-679.49"/>
<polygon fill="#0c0ccc" stroke="#0c0ccc" points="2032.17,-676.77 2023.7,-677.22 2030.6,-682.15 2032.17,-676.77"/>
<text text-anchor="middle" x="2179.12" y="-711.78" font-family="Times,serif" font-size="14.00">L</text>
</g>
<!-- node35 -->
<g id="node36" class="node">
<title>node35</title>
<ellipse fill="#cfe2ff" stroke="black" cx="2676.12" cy="-668.77" rx="188.18" ry="21.43"/>
<text text-anchor="middle" x="2676.12" y="-663.77" font-family="Helvetica,sans-Serif" font-size="20.00">OPERATOR::CONNECTOR</text>
</g>
<!-- node0&#45;&gt;node35 -->
<g id="edge54" class="edge">
<title>node0&#45;&gt;node35</title>
<path fill="none" stroke="#3dad3d" d="M2386.22,-742.59C2446.62,-727.42 2531.83,-706.01 2594.24,-690.34"/>
<polygon fill="#3dad3d" stroke="#3dad3d" points="2595.04,-693.02 2602.12,-688.36 2593.68,-687.59 2595.04,-693.02"/>
<text text-anchor="middle" x="2521.62" y="-711.78" font-family="Times,serif" font-size="14.00">R</text>
</g>
<!-- node2 -->
<g id="node3" class="node">
<title>node2</title>
<polygon fill="#d4f8d4" stroke="black" points="1765.12,-593.35 1738.12,-575.35 1765.12,-557.35 1792.12,-575.35 1765.12,-593.35"/>
<text text-anchor="middle" x="1765.12" y="-572.85" font-family="Helvetica,sans-Serif" font-size="10.00">n</text>
</g>
<!-- node1&#45;&gt;node2 -->
<g id="edge1" class="edge">
<title>node1&#45;&gt;node2</title>
<path fill="none" stroke="#0c0ccc" d="M1973.03,-660.17C1935.07,-648.34 1861.14,-624.03 1801.12,-596.56 1795.95,-594.19 1790.53,-591.35 1785.51,-588.56"/>
<polygon fill="#0c0ccc" stroke="#0c0ccc" points="1786.85,-586.1 1778.52,-584.57 1784.07,-590.97 1786.85,-586.1"/>
<text text-anchor="middle" x="1886.12" y="-618.36" font-family="Times,serif" font-size="14.00">L</text>
</g>
<!-- node3 -->
<g id="node4" class="node">
<title>node3</title>
<ellipse fill="#cfe2ff" stroke="black" cx="1998.12" cy="-575.35" rx="188.18" ry="21.43"/>
<text text-anchor="middle" x="1998.12" y="-570.35" font-family="Helvetica,sans-Serif" font-size="20.00">OPERATOR::CONNECTOR</text>
</g>
<!-- node1&#45;&gt;node3 -->
<g id="edge33" class="edge">
<title>node1&#45;&gt;node3</title>
<path fill="none" stroke="#3dad3d" d="M1998.12,-650.58C1998.12,-637.78 1998.12,-620.01 1998.12,-605.07"/>
<polygon fill="#3dad3d" stroke="#3dad3d" points="2000.92,-604.66 1998.12,-596.66 1995.32,-604.66 2000.92,-604.66"/>
<text text-anchor="middle" x="2003.62" y="-618.36" font-family="Times,serif" font-size="14.00">R</text>
</g>
<!-- node4 -->
<g id="node5" class="node">
<title>node4</title>
<ellipse fill="#cfe2ff" stroke="black" cx="1565.12" cy="-481.92" rx="188.18" ry="21.43"/>
<text text-anchor="middle" x="1565.12" y="-476.92" font-family="Helvetica,sans-Serif" font-size="20.00">OPERATOR::CONNECTOR</text>
</g>
<!-- node3&#45;&gt;node4 -->
<g id="edge30" class="edge">
<title>node3&#45;&gt;node4</title>
<path fill="none" stroke="#0c0ccc" d="M1913.09,-556.39C1839.78,-540.91 1734.1,-518.6 1658.47,-502.63"/>
<polygon fill="#0c0ccc" stroke="#0c0ccc" points="1658.73,-499.82 1650.32,-500.91 1657.57,-505.3 1658.73,-499.82"/>
<text text-anchor="middle" x="1813.12" y="-524.93" font-family="Times,serif" font-size="14.00">L</text>
</g>
<!-- node33 -->
<g id="node34" class="node">
<title>node33</title>
<ellipse fill="#ffd9b3" stroke="black" cx="1998.12" cy="-481.92" rx="83.21" ry="18"/>
<text text-anchor="middle" x="1998.12" y="-478.82" font-family="Helvetica,sans-Serif" font-size="12.00">KEYWORD::RETURN</text>
</g>
<!-- node3&#45;&gt;node33 -->
<g id="edge32" class="edge">
<title>node3&#45;&gt;node33</title>
<path fill="none" stroke="#3dad3d" d="M1998.12,-554.05C1998.12,-540.51 1998.12,-522.6 1998.12,-508.14"/>
<polygon fill="#3dad3d" stroke="#3dad3d" points="2000.92,-508.08 1998.12,-500.08 1995.32,-508.08 2000.92,-508.08"/>
<text text-anchor="middle" x="2003.62" y="-524.93" font-family="Times,serif" font-size="14.00">R</text>
</g>
<!-- node5 -->
<g id="node6" class="node">
<title>node5</title>
<ellipse fill="#cfe2ff" stroke="black" cx="924.12" cy="-388.49" rx="188.18" ry="21.43"/>
<text text-anchor="middle" x="924.12" y="-383.49" font-family="Helvetica,sans-Serif" font-size="20.00">OPERATOR::CONNECTOR</text>
</g>
<!-- node4&#45;&gt;node5 -->
<g id="edge14" class="edge">
<title>node4&#45;&gt;node5</title>
<path fill="none" stroke="#0c0ccc" d="M1452.73,-464.89C1338.4,-448.58 1161.81,-423.39 1044.63,-406.68"/>
<polygon fill="#0c0ccc" stroke="#0c0ccc" points="1044.96,-403.9 1036.64,-405.54 1044.17,-409.44 1044.96,-403.9"/>
<text text-anchor="middle" x="1288.12" y="-431.51" font-family="Times,serif" font-size="14.00">L</text>
</g>
<!-- node18 -->
<g id="node19" class="node">
<title>node18</title>
<ellipse fill="#ffd9b3" stroke="black" cx="1565.12" cy="-388.49" rx="76.9" ry="18"/>
<text text-anchor="middle" x="1565.12" y="-385.39" font-family="Helvetica,sans-Serif" font-size="12.00">KEYWORD::WHILE</text>
</g>
<!-- node4&#45;&gt;node18 -->
<g id="edge29" class="edge">
<title>node4&#45;&gt;node18</title>
<path fill="none" stroke="#3dad3d" d="M1565.12,-460.63C1565.12,-447.08 1565.12,-429.17 1565.12,-414.71"/>
<polygon fill="#3dad3d" stroke="#3dad3d" points="1567.92,-414.66 1565.12,-406.66 1562.32,-414.66 1567.92,-414.66"/>
<text text-anchor="middle" x="1570.62" y="-431.51" font-family="Times,serif" font-size="14.00">R</text>
</g>
<!-- node6 -->
<g id="node7" class="node">
<title>node6</title>
<ellipse fill="#cfe2ff" stroke="black" cx="454.12" cy="-295.07" rx="188.18" ry="21.43"/>
<text text-anchor="middle" x="454.12" y="-290.07" font-family="Helvetica,sans-Serif" font-size="20.00">OPERATOR::CONNECTOR</text>
</g>
<!-- node5&#45;&gt;node6 -->
<g id="edge7" class="edge">
<title>node5&#45;&gt;node6</title>
<path fill="none" stroke="#0c0ccc" d="M833.5,-369.86C753,-354.21 635.6,-331.37 552.77,-315.26"/>
<polygon fill="#0c0ccc" stroke="#0c0ccc" points="553.25,-312.5 544.86,-313.72 552.18,-317.99 553.25,-312.5"/>
<text text-anchor="middle" x="723.12" y="-338.08" font-family="Times,serif" font-size="14.00">L</text>
</g>
<!-- node12 -->
<g id="node13" class="node">
<title>node12</title>
<ellipse fill="#cfe2ff" stroke="black" cx="924.12" cy="-295.07" rx="188.18" ry="21.43"/>
<text text-anchor="middle" x="924.12" y="-290.07" font-family="Helvetica,sans-Serif" font-size="20.00">OPERATOR::CONNECTOR</text>
</g>
<!-- node5&#45;&gt;node12 -->
<g id="edge13" class="edge">
<title>node5&#45;&gt;node12</title>
<path fill="none" stroke="#3dad3d" d="M924.12,-367.2C924.12,-354.66 924.12,-338.36 924.12,-324.53"/>
<polygon fill="#3dad3d" stroke="#3dad3d" points="926.92,-324.3 924.12,-316.3 921.32,-324.3 926.92,-324.3"/>
<text text-anchor="middle" x="929.62" y="-338.08" font-family="Times,serif" font-size="14.00">R</text>
</g>
<!-- node7 -->
<g id="node8" class="node">
<title>node7</title>
<ellipse fill="#ffd9b3" stroke="black" cx="123.12" cy="-201.64" rx="123.23" ry="18"/>
<text text-anchor="middle" x="123.12" y="-198.54" font-family="Helvetica,sans-Serif" font-size="12.00">KEYWORD::VAR_DECLARATION</text>
</g>
<!-- node6&#45;&gt;node7 -->
<g id="edge3" class="edge">
<title>node6&#45;&gt;node7</title>
<path fill="none" stroke="#0c0ccc" d="M385.94,-275.23C327.19,-259.01 243.08,-235.77 185.95,-219.99"/>
<polygon fill="#0c0ccc" stroke="#0c0ccc" points="186.53,-217.25 178.07,-217.82 185.04,-222.65 186.53,-217.25"/>
<text text-anchor="middle" x="314.12" y="-244.65" font-family="Times,serif" font-size="14.00">L</text>
</g>
<!-- node9 -->
<g id="node10" class="node">
<title>node9</title>
<ellipse fill="#cfe2ff" stroke="black" cx="454.12" cy="-201.64" rx="190.42" ry="21.43"/>
<text text-anchor="middle" x="454.12" y="-196.64" font-family="Helvetica,sans-Serif" font-size="20.00">OPERATOR::ASSIGNMENT</text>
</g>
<!-- node6&#45;&gt;node9 -->
<g id="edge6" class="edge">
<title>node6&#45;&gt;node9</title>
<path fill="none" stroke="#3dad3d" d="M454.12,-273.78C454.12,-261.23 454.12,-244.94 454.12,-231.11"/>
<polygon fill="#3dad3d" stroke="#3dad3d" points="456.92,-230.87 454.12,-222.87 451.32,-230.87 456.92,-230.87"/>
<text text-anchor="middle" x="459.62" y="-244.65" font-family="Times,serif" font-size="14.00">R</text>
</g>
<!-- node8 -->
<g id="node9" class="node">
<title>node8</title>
<polygon fill="#d4f8d4" stroke="black" points="123.12,-126.21 86.36,-108.21 123.12,-90.21 159.88,-108.21 123.12,-126.21"/>
<text text-anchor="middle" x="123.12" y="-105.71" font-family="Helvetica,sans-Serif" font-size="10.00">result</text>
</g>
<!-- node7&#45;&gt;node8 -->
<g id="edge2" class="edge">
<title>node7&#45;&gt;node8</title>
<path fill="none" stroke="#0c0ccc" d="M123.12,-183.44C123.12,-169.65 123.12,-150.09 123.12,-134.52"/>
<polygon fill="#0c0ccc" stroke="#0c0ccc" points="125.92,-134.33 123.12,-126.33 120.32,-134.33 125.92,-134.33"/>
<text text-anchor="middle" x="128.12" y="-151.23" font-family="Times,serif" font-size="14.00">L</text>
</g>
<!-- node10 -->
<g id="node11" class="node">
<title>node10</title>
<polygon fill="#d4f8d4" stroke="black" points="413.12,-126.21 376.36,-108.21 413.12,-90.21 449.88,-108.21 413.12,-126.21"/>
<text text-anchor="middle" x="413.12" y="-105.71" font-family="Helvetica,sans-Serif" font-size="10.00">result</text>
</g>
<!-- node9&#45;&gt;node10 -->
<g id="edge4" class="edge">
<title>node9&#45;&gt;node10</title>
<path fill="none" stroke="#0c0ccc" d="M445.02,-180.35C438.39,-165.57 429.43,-145.58 422.69,-130.56"/>
<polygon fill="#0c0ccc" stroke="#0c0ccc" points="425.22,-129.36 419.39,-123.21 420.11,-131.65 425.22,-129.36"/>
<text text-anchor="middle" x="441.12" y="-151.23" font-family="Times,serif" font-size="14.00">L</text>
</g>
<!-- node11 -->
<g id="node12" class="node">
<title>node11</title>
<polygon fill="#fff2cc" stroke="black" points="522.12,-126.21 468.12,-126.21 468.12,-90.21 522.12,-90.21 522.12,-126.21"/>
<text text-anchor="middle" x="495.12" y="-105.71" font-family="Helvetica,sans-Serif" font-size="10.00">1</text>
</g>
<!-- node9&#45;&gt;node11 -->
<g id="edge5" class="edge">
<title>node9&#45;&gt;node11</title>
<path fill="none" stroke="#3dad3d" d="M463.22,-180.35C469.35,-166.68 477.47,-148.56 483.99,-134.03"/>
<polygon fill="#3dad3d" stroke="#3dad3d" points="486.7,-134.82 487.42,-126.38 481.59,-132.53 486.7,-134.82"/>
<text text-anchor="middle" x="482.62" y="-151.23" font-family="Times,serif" font-size="14.00">R</text>
</g>
<!-- node13 -->
<g id="node14" class="node">
<title>node13</title>
<ellipse fill="#ffd9b3" stroke="black" cx="785.12" cy="-201.64" rx="123.23" ry="18"/>
<text text-anchor="middle" x="785.12" y="-198.54" font-family="Helvetica,sans-Serif" font-size="12.00">KEYWORD::VAR_DECLARATION</text>
</g>
<!-- node12&#45;&gt;node13 -->
<g id="edge9" class="edge">
<title>node12&#45;&gt;node13</title>
<path fill="none" stroke="#0c0ccc" d="M893.61,-274C871.02,-259.14 840.29,-238.93 817.3,-223.81"/>
<polygon fill="#0c0ccc" stroke="#0c0ccc" points="818.66,-221.35 810.44,-219.29 815.58,-226.03 818.66,-221.35"/>
<text text-anchor="middle" x="868.12" y="-244.65" font-family="Times,serif" font-size="14.00">L</text>
</g>
<!-- node15 -->
<g id="node16" class="node">
<title>node15</title>
<ellipse fill="#cfe2ff" stroke="black" cx="1116.12" cy="-201.64" rx="190.42" ry="21.43"/>
<text text-anchor="middle" x="1116.12" y="-196.64" font-family="Helvetica,sans-Serif" font-size="20.00">OPERATOR::ASSIGNMENT</text>
</g>
<!-- node12&#45;&gt;node15 -->
<g id="edge12" class="edge">
<title>node12&#45;&gt;node15</title>
<path fill="none" stroke="#3dad3d" d="M965.78,-274.23C995.59,-260.03 1035.83,-240.87 1067.18,-225.94"/>
<polygon fill="#3dad3d" stroke="#3dad3d" points="1068.52,-228.41 1074.54,-222.44 1066.11,-223.35 1068.52,-228.41"/>
<text text-anchor="middle" x="1037.62" y="-244.65" font-family="Times,serif" font-size="14.00">R</text>
</g>
<!-- node14 -->
<g id="node15" class="node">
<title>node14</title>
<polygon fill="#d4f8d4" stroke="black" points="785.12,-126.21 758.12,-108.21 785.12,-90.21 812.12,-108.21 785.12,-126.21"/>
<text text-anchor="middle" x="785.12" y="-105.71" font-family="Helvetica,sans-Serif" font-size="10.00">i</text>
</g>
<!-- node13&#45;&gt;node14 -->
<g id="edge8" class="edge">
<title>node13&#45;&gt;node14</title>
<path fill="none" stroke="#0c0ccc" d="M785.12,-183.44C785.12,-169.65 785.12,-150.09 785.12,-134.52"/>
<polygon fill="#0c0ccc" stroke="#0c0ccc" points="787.92,-134.33 785.12,-126.33 782.32,-134.33 787.92,-134.33"/>
<text text-anchor="middle" x="790.12" y="-151.23" font-family="Times,serif" font-size="14.00">L</text>
</g>
<!-- node16 -->
<g id="node17" class="node">
<title>node16</title>
<polygon fill="#d4f8d4" stroke="black" points="1080.12,-126.21 1053.12,-108.21 1080.12,-90.21 1107.12,-108.21 1080.12,-126.21"/>
<text text-anchor="middle" x="1080.12" y="-105.71" font-family="Helvetica,sans-Serif" font-size="10.00">i</text>
</g>
<!-- node15&#45;&gt;node16 -->
<g id="edge10" class="edge">
<title>node15&#45;&gt;node16</title>
<path fill="none" stroke="#0c0ccc" d="M1108.13,-180.35C1102.33,-165.61 1094.49,-145.71 1088.58,-130.7"/>
<polygon fill="#0c0ccc" stroke="#0c0ccc" points="1091.06,-129.35 1085.52,-122.93 1085.84,-131.4 1091.06,-129.35"/>
<text text-anchor="middle" x="1106.12" y="-151.23" font-family="Times,serif" font-size="14.00">L</text>
</g>
<!-- node17 -->
<g id="node18" class="node">
<title>node17</title>
<polygon fill="#fff2cc" stroke="black" points="1179.12,-126.21 1125.12,-126.21 1125.12,-90.21 1179.12,-90.21 1179.12,-126.21"/>
<text text-anchor="middle" x="1152.12" y="-105.71" font-family="Helvetica,sans-Serif" font-size="10.00">1</text>
</g>
<!-- node15&#45;&gt;node17 -->
<g id="edge11" class="edge">
<title>node15&#45;&gt;node17</title>
<path fill="none" stroke="#3dad3d" d="M1124.11,-180.35C1129.49,-166.68 1136.62,-148.56 1142.35,-134.03"/>
<polygon fill="#3dad3d" stroke="#3dad3d" points="1145.03,-134.85 1145.36,-126.38 1139.82,-132.79 1145.03,-134.85"/>
<text text-anchor="middle" x="1142.62" y="-151.23" font-family="Times,serif" font-size="14.00">R</text>
</g>
<!-- node19 -->
<g id="node20" class="node">
<title>node19</title>
<ellipse fill="#cfe2ff" stroke="black" cx="1388.12" cy="-295.07" rx="147.57" ry="21.43"/>
<text text-anchor="middle" x="1388.12" y="-290.07" font-family="Helvetica,sans-Serif" font-size="20.00">OPERATOR::BELOW</text>
</g>
<!-- node18&#45;&gt;node19 -->
<g id="edge17" class="edge">
<title>node18&#45;&gt;node19</title>
<path fill="none" stroke="#0c0ccc" d="M1534.69,-371.78C1506.87,-357.41 1465.35,-335.96 1433.59,-319.56"/>
<polygon fill="#0c0ccc" stroke="#0c0ccc" points="1434.55,-316.9 1426.16,-315.71 1431.98,-321.87 1434.55,-316.9"/>
<text text-anchor="middle" x="1493.12" y="-338.08" font-family="Times,serif" font-size="14.00">L</text>
</g>
<!-- node22 -->
<g id="node23" class="node">
<title>node22</title>
<ellipse fill="#cfe2ff" stroke="black" cx="1742.12" cy="-295.07" rx="188.18" ry="21.43"/>
<text text-anchor="middle" x="1742.12" y="-290.07" font-family="Helvetica,sans-Serif" font-size="20.00">OPERATOR::CONNECTOR</text>
</g>
<!-- node18&#45;&gt;node22 -->
<g id="edge28" class="edge">
<title>node18&#45;&gt;node22</title>
<path fill="none" stroke="#3dad3d" d="M1595.54,-371.78C1623.27,-357.45 1664.61,-336.1 1696.33,-319.72"/>
<polygon fill="#3dad3d" stroke="#3dad3d" points="1697.94,-322.04 1703.76,-315.88 1695.37,-317.06 1697.94,-322.04"/>
<text text-anchor="middle" x="1670.62" y="-338.08" font-family="Times,serif" font-size="14.00">R</text>
</g>
<!-- node20 -->
<g id="node21" class="node">
<title>node20</title>
<polygon fill="#d4f8d4" stroke="black" points="1351.12,-219.64 1324.12,-201.64 1351.12,-183.64 1378.12,-201.64 1351.12,-219.64"/>
<text text-anchor="middle" x="1351.12" y="-199.14" font-family="Helvetica,sans-Serif" font-size="10.00">i</text>
</g>
<!-- node19&#45;&gt;node20 -->
<g id="edge15" class="edge">
<title>node19&#45;&gt;node20</title>
<path fill="none" stroke="#0c0ccc" d="M1379.91,-273.78C1373.91,-258.95 1365.79,-238.89 1359.7,-223.86"/>
<polygon fill="#0c0ccc" stroke="#0c0ccc" points="1362.15,-222.45 1356.56,-216.08 1356.96,-224.55 1362.15,-222.45"/>
<text text-anchor="middle" x="1377.12" y="-244.65" font-family="Times,serif" font-size="14.00">L</text>
</g>
<!-- node21 -->
<g id="node22" class="node">
<title>node21</title>
<polygon fill="#d4f8d4" stroke="black" points="1423.12,-219.64 1396.12,-201.64 1423.12,-183.64 1450.12,-201.64 1423.12,-219.64"/>
<text text-anchor="middle" x="1423.12" y="-199.14" font-family="Helvetica,sans-Serif" font-size="10.00">n</text>
</g>
<!-- node19&#45;&gt;node21 -->
<g id="edge16" class="edge">
<title>node19&#45;&gt;node21</title>
<path fill="none" stroke="#3dad3d" d="M1395.89,-273.78C1401.53,-259.04 1409.15,-239.13 1414.89,-224.13"/>
<polygon fill="#3dad3d" stroke="#3dad3d" points="1417.62,-224.83 1417.87,-216.36 1412.39,-222.83 1417.62,-224.83"/>
<text text-anchor="middle" x="1413.62" y="-244.65" font-family="Times,serif" font-size="14.00">R</text>
</g>
<!-- node23 -->
<g id="node24" class="node">
<title>node23</title>
<ellipse fill="#cfe2ff" stroke="black" cx="1658.12" cy="-201.64" rx="190.42" ry="21.43"/>
<text text-anchor="middle" x="1658.12" y="-196.64" font-family="Helvetica,sans-Serif" font-size="20.00">OPERATOR::ASSIGNMENT</text>
</g>
<!-- node22&#45;&gt;node23 -->
<g id="edge22" class="edge">
<title>node22&#45;&gt;node23</title>
<path fill="none" stroke="#0c0ccc" d="M1723.48,-273.78C1711.29,-260.52 1695.27,-243.08 1682.14,-228.79"/>
<polygon fill="#0c0ccc" stroke="#0c0ccc" points="1684.18,-226.87 1676.71,-222.87 1680.06,-230.66 1684.18,-226.87"/>
<text text-anchor="middle" x="1711.12" y="-244.65" font-family="Times,serif" font-size="14.00">L</text>
</g>
<!-- node28 -->
<g id="node29" class="node">
<title>node28</title>
<ellipse fill="#cfe2ff" stroke="black" cx="2056.12" cy="-201.64" rx="190.42" ry="21.43"/>
<text text-anchor="middle" x="2056.12" y="-196.64" font-family="Helvetica,sans-Serif" font-size="20.00">OPERATOR::ASSIGNMENT</text>
</g>
<!-- node22&#45;&gt;node28 -->
<g id="edge27" class="edge">
<title>node22&#45;&gt;node28</title>
<path fill="none" stroke="#3dad3d" d="M1807.18,-275.12C1858.46,-260.19 1929.94,-239.38 1983.16,-223.88"/>
<polygon fill="#3dad3d" stroke="#3dad3d" points="1983.97,-226.56 1990.87,-221.64 1982.41,-221.19 1983.97,-226.56"/>
<text text-anchor="middle" x="1923.62" y="-244.65" font-family="Times,serif" font-size="14.00">R</text>
</g>
<!-- node24 -->
<g id="node25" class="node">
<title>node24</title>
<polygon fill="#d4f8d4" stroke="black" points="1600.12,-126.21 1563.36,-108.21 1600.12,-90.21 1636.88,-108.21 1600.12,-126.21"/>
<text text-anchor="middle" x="1600.12" y="-105.71" font-family="Helvetica,sans-Serif" font-size="10.00">result</text>
</g>
<!-- node23&#45;&gt;node24 -->
<g id="edge18" class="edge">
<title>node23&#45;&gt;node24</title>
<path fill="none" stroke="#0c0ccc" d="M1645.25,-180.35C1635.61,-165.16 1622.49,-144.48 1612.88,-129.33"/>
<polygon fill="#0c0ccc" stroke="#0c0ccc" points="1615.12,-127.64 1608.47,-122.39 1610.39,-130.64 1615.12,-127.64"/>
<text text-anchor="middle" x="1638.12" y="-151.23" font-family="Times,serif" font-size="14.00">L</text>
</g>
<!-- node25 -->
<g id="node26" class="node">
<title>node25</title>
<ellipse fill="#cfe2ff" stroke="black" cx="1782.12" cy="-108.21" rx="127.06" ry="21.43"/>
<text text-anchor="middle" x="1782.12" y="-103.21" font-family="Helvetica,sans-Serif" font-size="20.00">OPERATOR::MUL</text>
</g>
<!-- node23&#45;&gt;node25 -->
<g id="edge21" class="edge">
<title>node23&#45;&gt;node25</title>
<path fill="none" stroke="#3dad3d" d="M1685.33,-180.58C1703.9,-166.88 1728.64,-148.64 1748.45,-134.03"/>
<polygon fill="#3dad3d" stroke="#3dad3d" points="1750.19,-136.23 1754.97,-129.23 1746.87,-131.72 1750.19,-136.23"/>
<text text-anchor="middle" x="1733.62" y="-151.23" font-family="Times,serif" font-size="14.00">R</text>
</g>
<!-- node26 -->
<g id="node27" class="node">
<title>node26</title>
<polygon fill="#d4f8d4" stroke="black" points="1741.12,-36 1704.36,-18 1741.12,0 1777.88,-18 1741.12,-36"/>
<text text-anchor="middle" x="1741.12" y="-15.5" font-family="Helvetica,sans-Serif" font-size="10.00">result</text>
</g>
<!-- node25&#45;&gt;node26 -->
<g id="edge19" class="edge">
<title>node25&#45;&gt;node26</title>
<path fill="none" stroke="#0c0ccc" d="M1772.61,-86.75C1766.14,-72.84 1757.6,-54.47 1751.05,-40.37"/>
<polygon fill="#0c0ccc" stroke="#0c0ccc" points="1753.55,-39.1 1747.64,-33.03 1748.47,-41.46 1753.55,-39.1"/>
<text text-anchor="middle" x="1769.12" y="-57.8" font-family="Times,serif" font-size="14.00">L</text>
</g>
<!-- node27 -->
<g id="node28" class="node">
<title>node27</title>
<polygon fill="#d4f8d4" stroke="black" points="1823.12,-36 1796.12,-18 1823.12,0 1850.12,-18 1823.12,-36"/>
<text text-anchor="middle" x="1823.12" y="-15.5" font-family="Helvetica,sans-Serif" font-size="10.00">i</text>
</g>
<!-- node25&#45;&gt;node27 -->
<g id="edge20" class="edge">
<title>node25&#45;&gt;node27</title>
<path fill="none" stroke="#3dad3d" d="M1791.63,-86.75C1798.21,-72.58 1806.95,-53.79 1813.55,-39.59"/>
<polygon fill="#3dad3d" stroke="#3dad3d" points="1816.14,-40.67 1816.97,-32.23 1811.06,-38.3 1816.14,-40.67"/>
<text text-anchor="middle" x="1812.62" y="-57.8" font-family="Times,serif" font-size="14.00">R</text>
</g>
<!-- node29 -->
<g id="node30" class="node">
<title>node29</title>
<polygon fill="#d4f8d4" stroke="black" points="2000.12,-126.21 1973.12,-108.21 2000.12,-90.21 2027.12,-108.21 2000.12,-126.21"/>
<text text-anchor="middle" x="2000.12" y="-105.71" font-family="Helvetica,sans-Serif" font-size="10.00">i</text>
</g>
<!-- node28&#45;&gt;node29 -->
<g id="edge23" class="edge">
<title>node28&#45;&gt;node29</title>
<path fill="none" stroke="#0c0ccc" d="M2043.69,-180.35C2034.16,-164.8 2021.11,-143.49 2011.78,-128.26"/>
<polygon fill="#0c0ccc" stroke="#0c0ccc" points="2014.1,-126.68 2007.53,-121.32 2009.32,-129.6 2014.1,-126.68"/>
<text text-anchor="middle" x="2037.12" y="-151.23" font-family="Times,serif" font-size="14.00">L</text>
</g>
<!-- node30 -->
<g id="node31" class="node">
<title>node30</title>
<ellipse fill="#cfe2ff" stroke="black" cx="2174.12" cy="-108.21" rx="128.89" ry="21.43"/>
<text text-anchor="middle" x="2174.12" y="-103.21" font-family="Helvetica,sans-Serif" font-size="20.00">OPERATOR::ADD</text>
</g>
<!-- node28&#45;&gt;node30 -->
<g id="edge26" class="edge">
<title>node28&#45;&gt;node30</title>
<path fill="none" stroke="#3dad3d" d="M2082.01,-180.58C2099.54,-167 2122.82,-148.96 2141.59,-134.42"/>
<polygon fill="#3dad3d" stroke="#3dad3d" points="2143.67,-136.34 2148.28,-129.23 2140.24,-131.92 2143.67,-136.34"/>
<text text-anchor="middle" x="2128.62" y="-151.23" font-family="Times,serif" font-size="14.00">R</text>
</g>
<!-- node31 -->
<g id="node32" class="node">
<title>node31</title>
<polygon fill="#d4f8d4" stroke="black" points="2138.12,-36 2111.12,-18 2138.12,0 2165.12,-18 2138.12,-36"/>
<text text-anchor="middle" x="2138.12" y="-15.5" font-family="Helvetica,sans-Serif" font-size="10.00">i</text>
</g>
<!-- node30&#45;&gt;node31 -->
<g id="edge24" class="edge">
<title>node30&#45;&gt;node31</title>
<path fill="none" stroke="#0c0ccc" d="M2165.77,-86.75C2160.07,-72.8 2152.55,-54.36 2146.79,-40.24"/>
<polygon fill="#0c0ccc" stroke="#0c0ccc" points="2149.24,-38.84 2143.62,-32.49 2144.05,-40.96 2149.24,-38.84"/>
<text text-anchor="middle" x="2164.12" y="-57.8" font-family="Times,serif" font-size="14.00">L</text>
</g>
<!-- node32 -->
<g id="node33" class="node">
<title>node32</title>
<polygon fill="#fff2cc" stroke="black" points="2237.12,-36 2183.12,-36 2183.12,0 2237.12,0 2237.12,-36"/>
<text text-anchor="middle" x="2210.12" y="-15.5" font-family="Helvetica,sans-Serif" font-size="10.00">1</text>
</g>
<!-- node30&#45;&gt;node32 -->
<g id="edge25" class="edge">
<title>node30&#45;&gt;node32</title>
<path fill="none" stroke="#3dad3d" d="M2182.47,-86.75C2187.71,-73.9 2194.51,-57.25 2200.05,-43.68"/>
<polygon fill="#3dad3d" stroke="#3dad3d" points="2202.71,-44.55 2203.14,-36.09 2197.53,-42.44 2202.71,-44.55"/>
<text text-anchor="middle" x="2201.62" y="-57.8" font-family="Times,serif" font-size="14.00">R</text>
</g>
<!-- node34 -->
<g id="node35" class="node">
<title>node34</title>
<polygon fill="#d4f8d4" stroke="black" points="1998.12,-406.49 1961.36,-388.49 1998.12,-370.49 2034.88,-388.49 1998.12,-406.49"/>
<text text-anchor="middle" x="1998.12" y="-385.99" font-family="Helvetica,sans-Serif" font-size="10.00">result</text>
</g>
<!-- node33&#45;&gt;node34 -->
<g id="edge31" class="edge">
<title>node33&#45;&gt;node34</title>
<path fill="none" stroke="#0c0ccc" d="M1998.12,-463.72C1998.12,-449.93 1998.12,-430.37 1998.12,-414.8"/>
<polygon fill="#0c0ccc" stroke="#0c0ccc" points="2000.92,-414.61 1998.12,-406.61 1995.32,-414.61 2000.92,-414.61"/>
<text text-anchor="middle" x="2003.12" y="-431.51" font-family="Times,serif" font-size="14.00">L</text>
</g>
<!-- node36 -->
<g id="node37" class="node">
<title>node36</title>
<ellipse fill="#cfe2ff" stroke="black" cx="2676.12" cy="-575.35" rx="188.18" ry="21.43"/>
<text text-anchor="middle" x="2676.12" y="-570.35" font-family="Helvetica,sans-Serif" font-size="20.00">OPERATOR::CONNECTOR</text>
</g>
<!-- node35&#45;&gt;node36 -->
<g id="edge51" class="edge">
<title>node35&#45;&gt;node36</title>
<path fill="none" stroke="#0c0ccc" d="M2676.12,-647.48C2676.12,-634.93 2676.12,-618.64 2676.12,-604.81"/>
<polygon fill="#0c0ccc" stroke="#0c0ccc" points="2678.92,-604.58 2676.12,-596.58 2673.32,-604.58 2678.92,-604.58"/>
<text text-anchor="middle" x="2681.12" y="-618.36" font-family="Times,serif" font-size="14.00">L</text>
</g>
<!-- node53 -->
<g id="node54" class="node">
<title>node53</title>
<ellipse fill="#cfe2ff" stroke="black" cx="3035.12" cy="-575.35" rx="126.64" ry="21.43"/>
<text text-anchor="middle" x="3035.12" y="-570.35" font-family="Helvetica,sans-Serif" font-size="20.00">OPERATOR::OUT</text>
</g>
<!-- node35&#45;&gt;node53 -->
<g id="edge53" class="edge">
<title>node35&#45;&gt;node53</title>
<path fill="none" stroke="#3dad3d" d="M2749.2,-649.16C2810.74,-633.49 2898.39,-611.17 2960.39,-595.38"/>
<polygon fill="#3dad3d" stroke="#3dad3d" points="2961.14,-598.08 2968.2,-593.39 2959.75,-592.65 2961.14,-598.08"/>
<text text-anchor="middle" x="2882.62" y="-618.36" font-family="Times,serif" font-size="14.00">R</text>
</g>
<!-- node37 -->
<g id="node38" class="node">
<title>node37</title>
<ellipse fill="#cfe2ff" stroke="black" cx="2549.12" cy="-481.92" rx="188.18" ry="21.43"/>
<text text-anchor="middle" x="2549.12" y="-476.92" font-family="Helvetica,sans-Serif" font-size="20.00">OPERATOR::CONNECTOR</text>
</g>
<!-- node36&#45;&gt;node37 -->
<g id="edge48" class="edge">
<title>node36&#45;&gt;node37</title>
<path fill="none" stroke="#0c0ccc" d="M2648.25,-554.28C2629.22,-540.59 2603.89,-522.35 2583.6,-507.74"/>
<polygon fill="#0c0ccc" stroke="#0c0ccc" points="2585.05,-505.34 2576.92,-502.94 2581.78,-509.88 2585.05,-505.34"/>
<text text-anchor="middle" x="2626.12" y="-524.93" font-family="Times,serif" font-size="14.00">L</text>
</g>
<!-- node51 -->
<g id="node52" class="node">
<title>node51</title>
<ellipse fill="#cfe2ff" stroke="black" cx="2882.12" cy="-481.92" rx="126.64" ry="21.43"/>
<text text-anchor="middle" x="2882.12" y="-476.92" font-family="Helvetica,sans-Serif" font-size="20.00">OPERATOR::OUT</text>
</g>
<!-- node36&#45;&gt;node51 -->
<g id="edge50" class="edge">
<title>node36&#45;&gt;node51</title>
<path fill="none" stroke="#3dad3d" d="M2720.56,-554.62C2753.22,-540.13 2797.64,-520.41 2831.64,-505.32"/>
<polygon fill="#3dad3d" stroke="#3dad3d" points="2832.99,-507.79 2839.16,-501.98 2830.71,-502.67 2832.99,-507.79"/>
<text text-anchor="middle" x="2797.62" y="-524.93" font-family="Times,serif" font-size="14.00">R</text>
</g>
<!-- node38 -->
<g id="node39" class="node">
<title>node38</title>
<ellipse fill="#cfe2ff" stroke="black" cx="2313.12" cy="-388.49" rx="188.18" ry="21.43"/>
<text text-anchor="middle" x="2313.12" y="-383.49" font-family="Helvetica,sans-Serif" font-size="20.00">OPERATOR::CONNECTOR</text>
</g>
<!-- node37&#45;&gt;node38 -->
<g id="edge39" class="edge">
<title>node37&#45;&gt;node38</title>
<path fill="none" stroke="#0c0ccc" d="M2498.78,-461.42C2461.34,-446.91 2410.18,-427.09 2371.04,-411.93"/>
<polygon fill="#0c0ccc" stroke="#0c0ccc" points="2371.85,-409.24 2363.38,-408.96 2369.83,-414.46 2371.85,-409.24"/>
<text text-anchor="middle" x="2451.12" y="-431.51" font-family="Times,serif" font-size="14.00">L</text>
</g>
<!-- node43 -->
<g id="node44" class="node">
<title>node43</title>
<ellipse fill="#cfe2ff" stroke="black" cx="2707.12" cy="-388.49" rx="188.18" ry="21.43"/>
<text text-anchor="middle" x="2707.12" y="-383.49" font-family="Helvetica,sans-Serif" font-size="20.00">OPERATOR::CONNECTOR</text>
</g>
<!-- node37&#45;&gt;node43 -->
<g id="edge47" class="edge">
<title>node37&#45;&gt;node43</title>
<path fill="none" stroke="#3dad3d" d="M2583.79,-460.85C2607.95,-446.87 2640.3,-428.16 2665.8,-413.4"/>
<polygon fill="#3dad3d" stroke="#3dad3d" points="2667.27,-415.78 2672.8,-409.35 2664.47,-410.94 2667.27,-415.78"/>
<text text-anchor="middle" x="2643.62" y="-431.51" font-family="Times,serif" font-size="14.00">R</text>
</g>
<!-- node39 -->
<g id="node40" class="node">
<title>node39</title>
<ellipse fill="#ffd9b3" stroke="black" cx="2201.12" cy="-295.07" rx="123.23" ry="18"/>
<text text-anchor="middle" x="2201.12" y="-291.97" font-family="Helvetica,sans-Serif" font-size="12.00">KEYWORD::VAR_DECLARATION</text>
</g>
<!-- node38&#45;&gt;node39 -->
<g id="edge36" class="edge">
<title>node38&#45;&gt;node39</title>
<path fill="none" stroke="#0c0ccc" d="M2288.54,-367.43C2270.76,-352.92 2246.73,-333.3 2228.37,-318.31"/>
<polygon fill="#0c0ccc" stroke="#0c0ccc" points="2229.85,-315.91 2221.88,-313.02 2226.31,-320.24 2229.85,-315.91"/>
<text text-anchor="middle" x="2269.12" y="-338.08" font-family="Times,serif" font-size="14.00">L</text>
</g>
<!-- node41 -->
<g id="node42" class="node">
<title>node41</title>
<ellipse fill="#cfe2ff" stroke="black" cx="2454.12" cy="-295.07" rx="111.95" ry="21.43"/>
<text text-anchor="middle" x="2454.12" y="-290.07" font-family="Helvetica,sans-Serif" font-size="20.00">OPERATOR::IN</text>
</g>
<!-- node38&#45;&gt;node41 -->
<g id="edge38" class="edge">
<title>node38&#45;&gt;node41</title>
<path fill="none" stroke="#3dad3d" d="M2344.06,-367.43C2365.51,-353.52 2394.19,-334.92 2416.89,-320.2"/>
<polygon fill="#3dad3d" stroke="#3dad3d" points="2418.54,-322.47 2423.73,-315.77 2415.5,-317.77 2418.54,-322.47"/>
<text text-anchor="middle" x="2397.62" y="-338.08" font-family="Times,serif" font-size="14.00">R</text>
</g>
<!-- node40 -->
<g id="node41" class="node">
<title>node40</title>
<polygon fill="#d4f8d4" stroke="black" points="2298.12,-219.64 2263.85,-201.64 2298.12,-183.64 2332.38,-201.64 2298.12,-219.64"/>
<text text-anchor="middle" x="2298.12" y="-199.14" font-family="Helvetica,sans-Serif" font-size="10.00">input</text>
</g>
<!-- node39&#45;&gt;node40 -->
<g id="edge35" class="edge">
<title>node39&#45;&gt;node40</title>
<path fill="none" stroke="#0c0ccc" d="M2219.36,-276.87C2236.86,-260.38 2263.11,-235.64 2280.42,-219.32"/>
<polygon fill="#0c0ccc" stroke="#0c0ccc" points="2282.46,-221.25 2286.36,-213.72 2278.62,-217.17 2282.46,-221.25"/>
<text text-anchor="middle" x="2261.12" y="-244.65" font-family="Times,serif" font-size="14.00">L</text>
</g>
<!-- node42 -->
<g id="node43" class="node">
<title>node42</title>
<polygon fill="#d4f8d4" stroke="black" points="2454.12,-219.64 2419.85,-201.64 2454.12,-183.64 2488.38,-201.64 2454.12,-219.64"/>
<text text-anchor="middle" x="2454.12" y="-199.14" font-family="Helvetica,sans-Serif" font-size="10.00">input</text>
</g>
<!-- node41&#45;&gt;node42 -->
<g id="edge37" class="edge">
<title>node41&#45;&gt;node42</title>
<path fill="none" stroke="#0c0ccc" d="M2454.12,-273.78C2454.12,-260.23 2454.12,-242.32 2454.12,-227.86"/>
<polygon fill="#0c0ccc" stroke="#0c0ccc" points="2456.92,-227.8 2454.12,-219.8 2451.32,-227.8 2456.92,-227.8"/>
<text text-anchor="middle" x="2459.12" y="-244.65" font-family="Times,serif" font-size="14.00">L</text>
</g>
<!-- node44 -->
<g id="node45" class="node">
<title>node44</title>
<ellipse fill="#ffd9b3" stroke="black" cx="2707.12" cy="-295.07" rx="123.23" ry="18"/>
<text text-anchor="middle" x="2707.12" y="-291.97" font-family="Helvetica,sans-Serif" font-size="12.00">KEYWORD::VAR_DECLARATION</text>
</g>
<!-- node43&#45;&gt;node44 -->
<g id="edge41" class="edge">
<title>node43&#45;&gt;node44</title>
<path fill="none" stroke="#0c0ccc" d="M2707.12,-367.2C2707.12,-353.66 2707.12,-335.75 2707.12,-321.29"/>
<polygon fill="#0c0ccc" stroke="#0c0ccc" points="2709.92,-321.23 2707.12,-313.23 2704.32,-321.23 2709.92,-321.23"/>
<text text-anchor="middle" x="2712.12" y="-338.08" font-family="Times,serif" font-size="14.00">L</text>
</g>
<!-- node46 -->
<g id="node47" class="node">
<title>node46</title>
<ellipse fill="#cfe2ff" stroke="black" cx="3038.12" cy="-295.07" rx="190.42" ry="21.43"/>
<text text-anchor="middle" x="3038.12" y="-290.07" font-family="Helvetica,sans-Serif" font-size="20.00">OPERATOR::ASSIGNMENT</text>
</g>
<!-- node43&#45;&gt;node46 -->
<g id="edge46" class="edge">
<title>node43&#45;&gt;node46</title>
<path fill="none" stroke="#3dad3d" d="M2775.3,-368.66C2829.7,-353.63 2905.87,-332.59 2962.21,-317.03"/>
<polygon fill="#3dad3d" stroke="#3dad3d" points="2963.06,-319.7 2970.02,-314.87 2961.57,-314.31 2963.06,-319.7"/>
<text text-anchor="middle" x="2898.62" y="-338.08" font-family="Times,serif" font-size="14.00">R</text>
</g>
<!-- node45 -->
<g id="node46" class="node">
<title>node45</title>
<polygon fill="#d4f8d4" stroke="black" points="2707.12,-219.64 2659.71,-201.64 2707.12,-183.64 2754.52,-201.64 2707.12,-219.64"/>
<text text-anchor="middle" x="2707.12" y="-199.14" font-family="Helvetica,sans-Serif" font-size="10.00">factorial</text>
</g>
<!-- node44&#45;&gt;node45 -->
<g id="edge40" class="edge">
<title>node44&#45;&gt;node45</title>
<path fill="none" stroke="#0c0ccc" d="M2707.12,-276.87C2707.12,-263.08 2707.12,-243.52 2707.12,-227.94"/>
<polygon fill="#0c0ccc" stroke="#0c0ccc" points="2709.92,-227.76 2707.12,-219.76 2704.32,-227.76 2709.92,-227.76"/>
<text text-anchor="middle" x="2712.12" y="-244.65" font-family="Times,serif" font-size="14.00">L</text>
</g>
<!-- node47 -->
<g id="node48" class="node">
<title>node47</title>
<polygon fill="#d4f8d4" stroke="black" points="2989.12,-219.64 2941.71,-201.64 2989.12,-183.64 3036.52,-201.64 2989.12,-219.64"/>
<text text-anchor="middle" x="2989.12" y="-199.14" font-family="Helvetica,sans-Serif" font-size="10.00">factorial</text>
</g>
<!-- node46&#45;&gt;node47 -->
<g id="edge42" class="edge">
<title>node46&#45;&gt;node47</title>
<path fill="none" stroke="#0c0ccc" d="M3027.24,-273.78C3019.37,-259.08 3008.74,-239.25 3000.7,-224.26"/>
<polygon fill="#0c0ccc" stroke="#0c0ccc" points="3003.01,-222.64 2996.77,-216.91 2998.08,-225.29 3003.01,-222.64"/>
<text text-anchor="middle" x="3022.12" y="-244.65" font-family="Times,serif" font-size="14.00">L</text>
</g>
<!-- node48 -->
<g id="node49" class="node">
<title>node48</title>
<ellipse fill="#ffd9b3" stroke="black" cx="3150.12" cy="-201.64" rx="95.33" ry="18"/>
<text text-anchor="middle" x="3150.12" y="-198.54" font-family="Helvetica,sans-Serif" font-size="12.00">KEYWORD::FUNC_CALL</text>
</g>
<!-- node46&#45;&gt;node48 -->
<g id="edge45" class="edge">
<title>node46&#45;&gt;node48</title>
<path fill="none" stroke="#3dad3d" d="M3062.7,-274C3080.59,-259.4 3104.81,-239.62 3123.22,-224.6"/>
<polygon fill="#3dad3d" stroke="#3dad3d" points="3125.29,-226.52 3129.72,-219.29 3121.75,-222.18 3125.29,-226.52"/>
<text text-anchor="middle" x="3105.62" y="-244.65" font-family="Times,serif" font-size="14.00">R</text>
</g>
<!-- node49 -->
<g id="node50" class="node">
<title>node49</title>
<polygon fill="#d4f8d4" stroke="black" points="3100.12,-126.21 3052.71,-108.21 3100.12,-90.21 3147.52,-108.21 3100.12,-126.21"/>
<text text-anchor="middle" x="3100.12" y="-105.71" font-family="Helvetica,sans-Serif" font-size="10.00">factorial</text>
</g>
<!-- node48&#45;&gt;node49 -->
<g id="edge43" class="edge">
<title>node48&#45;&gt;node49</title>
<path fill="none" stroke="#0c0ccc" d="M3140.71,-183.44C3132.54,-168.51 3120.68,-146.81 3111.88,-130.73"/>
<polygon fill="#0c0ccc" stroke="#0c0ccc" points="3114.14,-129.01 3107.84,-123.34 3109.22,-131.7 3114.14,-129.01"/>
<text text-anchor="middle" x="3132.12" y="-151.23" font-family="Times,serif" font-size="14.00">L</text>
</g>
<!-- node50 -->
<g id="node51" class="node">
<title>node50</title>
<polygon fill="#d4f8d4" stroke="black" points="3200.12,-126.21 3165.85,-108.21 3200.12,-90.21 3234.38,-108.21 3200.12,-126.21"/>
<text text-anchor="middle" x="3200.12" y="-105.71" font-family="Helvetica,sans-Serif" font-size="10.00">input</text>
</g>
<!-- node48&#45;&gt;node50 -->
<g id="edge44" class="edge">
<title>node48&#45;&gt;node50</title>
<path fill="none" stroke="#3dad3d" d="M3159.52,-183.44C3167.84,-168.24 3179.98,-146.03 3188.82,-129.87"/>
<polygon fill="#3dad3d" stroke="#3dad3d" points="3191.48,-130.84 3192.86,-122.48 3186.57,-128.15 3191.48,-130.84"/>
<text text-anchor="middle" x="3182.62" y="-151.23" font-family="Times,serif" font-size="14.00">R</text>
</g>
<!-- node52 -->
<g id="node53" class="node">
<title>node52</title>
<polygon fill="#d4f8d4" stroke="black" points="2961.12,-406.49 2913.71,-388.49 2961.12,-370.49 3008.52,-388.49 2961.12,-406.49"/>
<text text-anchor="middle" x="2961.12" y="-385.99" font-family="Helvetica,sans-Serif" font-size="10.00">factorial</text>
</g>
<!-- node51&#45;&gt;node52 -->
<g id="edge49" class="edge">
<title>node51&#45;&gt;node52</title>
<path fill="none" stroke="#0c0ccc" d="M2899.65,-460.63C2913.09,-445.07 2931.52,-423.75 2944.68,-408.52"/>
<polygon fill="#0c0ccc" stroke="#0c0ccc" points="2946.86,-410.28 2949.97,-402.39 2942.62,-406.62 2946.86,-410.28"/>
<text text-anchor="middle" x="2932.12" y="-431.51" font-family="Times,serif" font-size="14.00">L</text>
</g>
<!-- node54 -->
<g id="node55" class="node">
<title>node54</title>
<polygon fill="#d4f8d4" stroke="black" points="3061.12,-499.92 3026.85,-481.92 3061.12,-463.92 3095.38,-481.92 3061.12,-499.92"/>
<text text-anchor="middle" x="3061.12" y="-479.42" font-family="Helvetica,sans-Serif" font-size="10.00">done</text>
</g>
<!-- node53&#45;&gt;node54 -->
<g id="edge52" class="edge">
<title>node53&#45;&gt;node54</title>
<path fill="none" stroke="#0c0ccc" d="M3040.89,-554.05C3044.98,-539.67 3050.47,-520.37 3054.7,-505.5"/>
<polygon fill="#0c0ccc" stroke="#0c0ccc" points="3057.4,-506.22 3056.9,-497.75 3052.02,-504.68 3057.4,-506.22"/>
<text text-anchor="middle" x="3055.12" y="-524.93" font-family="Times,serif" font-size="14.00">L</text>
</g>
</g>
</svg>
