<?xml version="1.0" encoding="UTF-8" standalone="no"?>
<!DOCTYPE svg PUBLIC "-//W3C//DTD SVG 1.1//EN"
 "http://www.w3.org/Graphics/SVG/1.1/DTD/svg11.dtd">
<!-- Generated by graphviz version 2.43.0 (0)
 -->
<!-- Title: EquationTree Pages: 1 -->
<svg width="2373pt" height="740pt"
 viewBox="0.00 0.00 2372.53 740.00" xmlns="http://www.w3.org/2000/svg" xmlns:xlink="http://www.w3.org/1999/xlink">
<g id="graph0" class="graph" transform="scale(1 1) rotate(0) translate(4 736)">
<title>EquationTree</title>
<polygon fill="white" stroke="transparent" points="-4,4 -4,-736 2368.53,-736 2368.53,4 -4,4"/>
<!-- node0 -->
<g id="node1" class="node">
<title>node0</title>
<ellipse fill="#cfe2ff" stroke="black" cx="1686.12" cy="-714" rx="102.61" ry="18"/>
<text text-anchor="middle" x="1686.12" y="-710.9" font-family="Helvetica,sans-Serif" font-size="12.00">OPERATOR::CONNECTOR</text>
</g>
<!-- node1 -->
<g id="node2" class="node">
<title>node1</title>
<polygon fill="#d4f8d4" stroke="black" points="1469.12,-645 1421.71,-627 1469.12,-609 1516.52,-627 1469.12,-645"/>
<text text-anchor="middle" x="1469.12" y="-624.5" font-family="Helvetica,sans-Serif" font-size="10.00">factorial</text>
</g>
<!-- node0&#45;&gt;node1 -->
<g id="edge34" class="edge">
<title>node0&#45;&gt;node1</title>
<path fill="none" stroke="#0c0ccc" d="M1646.06,-697.31C1603.53,-680.65 1537.29,-654.7 1499.07,-639.73"/>
<polygon fill="#0c0ccc" stroke="#0c0ccc" points="1499.82,-637.02 1491.35,-636.71 1497.78,-642.23 1499.82,-637.02"/>
<text text-anchor="middle" x="1596.12" y="-666.8" font-family="Times,serif" font-size="14.00">L</text>
</g>
<!-- node35 -->
<g id="node36" class="node">
<title>node35</title>
<ellipse fill="#cfe2ff" stroke="black" cx="1926.12" cy="-627" rx="102.61" ry="18"/>
<text text-anchor="middle" x="1926.12" y="-623.9" font-family="Helvetica,sans-Serif" font-size="12.00">OPERATOR::CONNECTOR</text>
</g>
<!-- node0&#45;&gt;node35 -->
<g id="edge54" class="edge">
<title>node0&#45;&gt;node35</title>
<path fill="none" stroke="#3dad3d" d="M1729.58,-697.61C1770.48,-683.12 1831.75,-661.42 1874.99,-646.11"/>
<polygon fill="#3dad3d" stroke="#3dad3d" points="1875.97,-648.73 1882.57,-643.42 1874.1,-643.45 1875.97,-648.73"/>
<text text-anchor="middle" x="1826.62" y="-666.8" font-family="Times,serif" font-size="14.00">R</text>
</g>
<!-- node2 -->
<g id="node3" class="node">
<title>node2</title>
<polygon fill="#d4f8d4" stroke="black" points="1321.12,-558 1294.12,-540 1321.12,-522 1348.12,-540 1321.12,-558"/>
<text text-anchor="middle" x="1321.12" y="-537.5" font-family="Helvetica,sans-Serif" font-size="10.00">n</text>
</g>
<!-- node1&#45;&gt;node2 -->
<g id="edge1" class="edge">
<title>node1&#45;&gt;node2</title>
<path fill="none" stroke="#0c0ccc" d="M1451.27,-615.75C1423.88,-600.02 1371.61,-570 1342.34,-553.19"/>
<polygon fill="#0c0ccc" stroke="#0c0ccc" points="1343.4,-550.57 1335.07,-549.01 1340.61,-555.43 1343.4,-550.57"/>
<text text-anchor="middle" x="1409.12" y="-579.8" font-family="Times,serif" font-size="14.00">L</text>
</g>
<!-- node3 -->
<g id="node4" class="node">
<title>node3</title>
<ellipse fill="#cfe2ff" stroke="black" cx="1469.12" cy="-540" rx="102.61" ry="18"/>
<text text-anchor="middle" x="1469.12" y="-536.9" font-family="Helvetica,sans-Serif" font-size="12.00">OPERATOR::CONNECTOR</text>
</g>
<!-- node1&#45;&gt;node3 -->
<g id="edge33" class="edge">
<title>node1&#45;&gt;node3</title>
<path fill="none" stroke="#3dad3d" d="M1469.12,-608.8C1469.12,-596.59 1469.12,-579.99 1469.12,-566.28"/>
<polygon fill="#3dad3d" stroke="#3dad3d" points="1471.92,-566.18 1469.12,-558.18 1466.32,-566.18 1471.92,-566.18"/>
<text text-anchor="middle" x="1474.62" y="-579.8" font-family="Times,serif" font-size="14.00">R</text>
</g>
<!-- node4 -->
<g id="node5" class="node">
<title>node4</title>
<ellipse fill="#cfe2ff" stroke="black" cx="1113.12" cy="-453" rx="102.61" ry="18"/>
<text text-anchor="middle" x="1113.12" y="-449.9" font-family="Helvetica,sans-Serif" font-size="12.00">OPERATOR::CONNECTOR</text>
</g>
<!-- node3&#45;&gt;node4 -->
<g id="edge30" class="edge">
<title>node3&#45;&gt;node4</title>
<path fill="none" stroke="#0c0ccc" d="M1410.73,-525.06C1347.13,-509.87 1245.63,-485.64 1179.17,-469.77"/>
<polygon fill="#0c0ccc" stroke="#0c0ccc" points="1179.67,-467.01 1171.24,-467.88 1178.37,-472.46 1179.67,-467.01"/>
<text text-anchor="middle" x="1318.12" y="-492.8" font-family="Times,serif" font-size="14.00">L</text>
</g>
<!-- node33 -->
<g id="node34" class="node">
<title>node33</title>
<ellipse fill="#ffd9b3" stroke="black" cx="1469.12" cy="-453" rx="83.21" ry="18"/>
<text text-anchor="middle" x="1469.12" y="-449.9" font-family="Helvetica,sans-Serif" font-size="12.00">KEYWORD::RETURN</text>
</g>
<!-- node3&#45;&gt;node33 -->
<g id="edge32" class="edge">
<title>node3&#45;&gt;node33</title>
<path fill="none" stroke="#3dad3d" d="M1469.12,-521.8C1469.12,-509.59 1469.12,-492.99 1469.12,-479.28"/>
<polygon fill="#3dad3d" stroke="#3dad3d" points="1471.92,-479.18 1469.12,-471.18 1466.32,-479.18 1471.92,-479.18"/>
<text text-anchor="middle" x="1474.62" y="-492.8" font-family="Times,serif" font-size="14.00">R</text>
</g>
<!-- node5 -->
<g id="node6" class="node">
<title>node5</title>
<ellipse fill="#cfe2ff" stroke="black" cx="749.12" cy="-366" rx="102.61" ry="18"/>
<text text-anchor="middle" x="749.12" y="-362.9" font-family="Helvetica,sans-Serif" font-size="12.00">OPERATOR::CONNECTOR</text>
</g>
<!-- node4&#45;&gt;node5 -->
<g id="edge14" class="edge">
<title>node4&#45;&gt;node5</title>
<path fill="none" stroke="#0c0ccc" d="M1053.82,-438.15C988.68,-422.94 884.29,-398.56 816.2,-382.67"/>
<polygon fill="#0c0ccc" stroke="#0c0ccc" points="816.51,-379.86 808.08,-380.77 815.24,-385.32 816.51,-379.86"/>
<text text-anchor="middle" x="958.12" y="-405.8" font-family="Times,serif" font-size="14.00">L</text>
</g>
<!-- node18 -->
<g id="node19" class="node">
<title>node18</title>
<ellipse fill="#ffd9b3" stroke="black" cx="1113.12" cy="-366" rx="76.9" ry="18"/>
<text text-anchor="middle" x="1113.12" y="-362.9" font-family="Helvetica,sans-Serif" font-size="12.00">KEYWORD::WHILE</text>
</g>
<!-- node4&#45;&gt;node18 -->
<g id="edge29" class="edge">
<title>node4&#45;&gt;node18</title>
<path fill="none" stroke="#3dad3d" d="M1113.12,-434.8C1113.12,-422.59 1113.12,-405.99 1113.12,-392.28"/>
<polygon fill="#3dad3d" stroke="#3dad3d" points="1115.92,-392.18 1113.12,-384.18 1110.32,-392.18 1115.92,-392.18"/>
<text text-anchor="middle" x="1118.62" y="-405.8" font-family="Times,serif" font-size="14.00">R</text>
</g>
<!-- node6 -->
<g id="node7" class="node">
<title>node6</title>
<ellipse fill="#cfe2ff" stroke="black" cx="368.12" cy="-279" rx="102.61" ry="18"/>
<text text-anchor="middle" x="368.12" y="-275.9" font-family="Helvetica,sans-Serif" font-size="12.00">OPERATOR::CONNECTOR</text>
</g>
<!-- node5&#45;&gt;node6 -->
<g id="edge7" class="edge">
<title>node5&#45;&gt;node6</title>
<path fill="none" stroke="#0c0ccc" d="M688.33,-351.44C619.85,-336.16 508.79,-311.38 437.11,-295.39"/>
<polygon fill="#0c0ccc" stroke="#0c0ccc" points="437.43,-292.59 429.01,-293.58 436.21,-298.06 437.43,-292.59"/>
<text text-anchor="middle" x="587.12" y="-318.8" font-family="Times,serif" font-size="14.00">L</text>
</g>
<!-- node12 -->
<g id="node13" class="node">
<title>node12</title>
<ellipse fill="#cfe2ff" stroke="black" cx="749.12" cy="-279" rx="102.61" ry="18"/>
<text text-anchor="middle" x="749.12" y="-275.9" font-family="Helvetica,sans-Serif" font-size="12.00">OPERATOR::CONNECTOR</text>
</g>
<!-- node5&#45;&gt;node12 -->
<g id="edge13" class="edge">
<title>node5&#45;&gt;node12</title>
<path fill="none" stroke="#3dad3d" d="M749.12,-347.8C749.12,-335.59 749.12,-318.99 749.12,-305.28"/>
<polygon fill="#3dad3d" stroke="#3dad3d" points="751.92,-305.18 749.12,-297.18 746.32,-305.18 751.92,-305.18"/>
<text text-anchor="middle" x="754.62" y="-318.8" font-family="Times,serif" font-size="14.00">R</text>
</g>
<!-- node7 -->
<g id="node8" class="node">
<title>node7</title>
<ellipse fill="#ffd9b3" stroke="black" cx="123.12" cy="-192" rx="123.23" ry="18"/>
<text text-anchor="middle" x="123.12" y="-188.9" font-family="Helvetica,sans-Serif" font-size="12.00">KEYWORD::VAR_DECLARATION</text>
</g>
<!-- node6&#45;&gt;node7 -->
<g id="edge3" class="edge">
<title>node6&#45;&gt;node7</title>
<path fill="none" stroke="#0c0ccc" d="M324.03,-262.71C282.57,-248.32 220.44,-226.77 176.26,-211.44"/>
<polygon fill="#0c0ccc" stroke="#0c0ccc" points="176.98,-208.72 168.51,-208.75 175.15,-214.01 176.98,-208.72"/>
<text text-anchor="middle" x="266.12" y="-231.8" font-family="Times,serif" font-size="14.00">L</text>
</g>
<!-- node9 -->
<g id="node10" class="node">
<title>node9</title>
<ellipse fill="#cfe2ff" stroke="black" cx="368.12" cy="-192" rx="104.07" ry="18"/>
<text text-anchor="middle" x="368.12" y="-188.9" font-family="Helvetica,sans-Serif" font-size="12.00">OPERATOR::ASSIGNMENT</text>
</g>
<!-- node6&#45;&gt;node9 -->
<g id="edge6" class="edge">
<title>node6&#45;&gt;node9</title>
<path fill="none" stroke="#3dad3d" d="M368.12,-260.8C368.12,-248.59 368.12,-231.99 368.12,-218.28"/>
<polygon fill="#3dad3d" stroke="#3dad3d" points="370.92,-218.18 368.12,-210.18 365.32,-218.18 370.92,-218.18"/>
<text text-anchor="middle" x="373.62" y="-231.8" font-family="Times,serif" font-size="14.00">R</text>
</g>
<!-- node8 -->
<g id="node9" class="node">
<title>node8</title>
<polygon fill="#d4f8d4" stroke="black" points="123.12,-123 86.36,-105 123.12,-87 159.88,-105 123.12,-123"/>
<text text-anchor="middle" x="123.12" y="-102.5" font-family="Helvetica,sans-Serif" font-size="10.00">result</text>
</g>
<!-- node7&#45;&gt;node8 -->
<g id="edge2" class="edge">
<title>node7&#45;&gt;node8</title>
<path fill="none" stroke="#0c0ccc" d="M123.12,-173.8C123.12,-161.59 123.12,-144.99 123.12,-131.28"/>
<polygon fill="#0c0ccc" stroke="#0c0ccc" points="125.92,-131.18 123.12,-123.18 120.32,-131.18 125.92,-131.18"/>
<text text-anchor="middle" x="128.12" y="-144.8" font-family="Times,serif" font-size="14.00">L</text>
</g>
<!-- node10 -->
<g id="node11" class="node">
<title>node10</title>
<polygon fill="#d4f8d4" stroke="black" points="327.12,-123 290.36,-105 327.12,-87 363.88,-105 327.12,-123"/>
<text text-anchor="middle" x="327.12" y="-102.5" font-family="Helvetica,sans-Serif" font-size="10.00">result</text>
</g>
<!-- node9&#45;&gt;node10 -->
<g id="edge4" class="edge">
<title>node9&#45;&gt;node10</title>
<path fill="none" stroke="#0c0ccc" d="M359.82,-173.8C353.34,-160.37 344.31,-141.65 337.38,-127.28"/>
<polygon fill="#0c0ccc" stroke="#0c0ccc" points="339.78,-125.8 333.78,-119.81 334.73,-128.23 339.78,-125.8"/>
<text text-anchor="middle" x="355.12" y="-144.8" font-family="Times,serif" font-size="14.00">L</text>
</g>
<!-- node11 -->
<g id="node12" class="node">
<title>node11</title>
<polygon fill="#fff2cc" stroke="black" points="436.12,-123 382.12,-123 382.12,-87 436.12,-87 436.12,-123"/>
<text text-anchor="middle" x="409.12" y="-102.5" font-family="Helvetica,sans-Serif" font-size="10.00">1</text>
</g>
<!-- node9&#45;&gt;node11 -->
<g id="edge5" class="edge">
<title>node9&#45;&gt;node11</title>
<path fill="none" stroke="#3dad3d" d="M376.41,-173.8C382.42,-161.36 390.61,-144.36 397.3,-130.5"/>
<polygon fill="#3dad3d" stroke="#3dad3d" points="399.88,-131.6 400.83,-123.18 394.84,-129.16 399.88,-131.6"/>
<text text-anchor="middle" x="396.62" y="-144.8" font-family="Times,serif" font-size="14.00">R</text>
</g>
<!-- node13 -->
<g id="node14" class="node">
<title>node13</title>
<ellipse fill="#ffd9b3" stroke="black" cx="613.12" cy="-192" rx="123.23" ry="18"/>
<text text-anchor="middle" x="613.12" y="-188.9" font-family="Helvetica,sans-Serif" font-size="12.00">KEYWORD::VAR_DECLARATION</text>
</g>
<!-- node12&#45;&gt;node13 -->
<g id="edge9" class="edge">
<title>node12&#45;&gt;node13</title>
<path fill="none" stroke="#0c0ccc" d="M722.57,-261.41C701,-247.92 670.41,-228.81 647.06,-214.21"/>
<polygon fill="#0c0ccc" stroke="#0c0ccc" points="648.33,-211.7 640.06,-209.84 645.36,-216.45 648.33,-211.7"/>
<text text-anchor="middle" x="695.12" y="-231.8" font-family="Times,serif" font-size="14.00">L</text>
</g>
<!-- node15 -->
<g id="node16" class="node">
<title>node15</title>
<ellipse fill="#cfe2ff" stroke="black" cx="858.12" cy="-192" rx="104.07" ry="18"/>
<text text-anchor="middle" x="858.12" y="-188.9" font-family="Helvetica,sans-Serif" font-size="12.00">OPERATOR::ASSIGNMENT</text>
</g>
<!-- node12&#45;&gt;node15 -->
<g id="edge12" class="edge">
<title>node12&#45;&gt;node15</title>
<path fill="none" stroke="#3dad3d" d="M770.65,-261.21C787.67,-247.93 811.56,-229.31 830.07,-214.87"/>
<polygon fill="#3dad3d" stroke="#3dad3d" points="832.04,-216.89 836.63,-209.76 828.6,-212.47 832.04,-216.89"/>
<text text-anchor="middle" x="816.62" y="-231.8" font-family="Times,serif" font-size="14.00">R</text>
</g>
<!-- node14 -->
<g id="node15" class="node">
<title>node14</title>
<polygon fill="#d4f8d4" stroke="black" points="613.12,-123 586.12,-105 613.12,-87 640.12,-105 613.12,-123"/>
<text text-anchor="middle" x="613.12" y="-102.5" font-family="Helvetica,sans-Serif" font-size="10.00">i</text>
</g>
<!-- node13&#45;&gt;node14 -->
<g id="edge8" class="edge">
<title>node13&#45;&gt;node14</title>
<path fill="none" stroke="#0c0ccc" d="M613.12,-173.8C613.12,-161.59 613.12,-144.99 613.12,-131.28"/>
<polygon fill="#0c0ccc" stroke="#0c0ccc" points="615.92,-131.18 613.12,-123.18 610.32,-131.18 615.92,-131.18"/>
<text text-anchor="middle" x="618.12" y="-144.8" font-family="Times,serif" font-size="14.00">L</text>
</g>
<!-- node16 -->
<g id="node17" class="node">
<title>node16</title>
<polygon fill="#d4f8d4" stroke="black" points="822.12,-123 795.12,-105 822.12,-87 849.12,-105 822.12,-123"/>
<text text-anchor="middle" x="822.12" y="-102.5" font-family="Helvetica,sans-Serif" font-size="10.00">i</text>
</g>
<!-- node15&#45;&gt;node16 -->
<g id="edge10" class="edge">
<title>node15&#45;&gt;node16</title>
<path fill="none" stroke="#0c0ccc" d="M850.83,-173.8C845.08,-160.21 837.02,-141.2 830.91,-126.76"/>
<polygon fill="#0c0ccc" stroke="#0c0ccc" points="833.44,-125.55 827.74,-119.28 828.28,-127.73 833.44,-125.55"/>
<text text-anchor="middle" x="848.12" y="-144.8" font-family="Times,serif" font-size="14.00">L</text>
</g>
<!-- node17 -->
<g id="node18" class="node">
<title>node17</title>
<polygon fill="#fff2cc" stroke="black" points="921.12,-123 867.12,-123 867.12,-87 921.12,-87 921.12,-123"/>
<text text-anchor="middle" x="894.12" y="-102.5" font-family="Helvetica,sans-Serif" font-size="10.00">1</text>
</g>
<!-- node15&#45;&gt;node17 -->
<g id="edge11" class="edge">
<title>node15&#45;&gt;node17</title>
<path fill="none" stroke="#3dad3d" d="M865.4,-173.8C870.62,-161.47 877.74,-144.68 883.58,-130.89"/>
<polygon fill="#3dad3d" stroke="#3dad3d" points="886.3,-131.63 886.84,-123.18 881.14,-129.45 886.3,-131.63"/>
<text text-anchor="middle" x="884.62" y="-144.8" font-family="Times,serif" font-size="14.00">R</text>
</g>
<!-- node19 -->
<g id="node20" class="node">
<title>node19</title>
<ellipse fill="#cfe2ff" stroke="black" cx="1050.12" cy="-279" rx="96.06" ry="18"/>
<text text-anchor="middle" x="1050.12" y="-275.9" font-family="Helvetica,sans-Serif" font-size="12.00">OPERATOR::BELOW_EQ</text>
</g>
<!-- node18&#45;&gt;node19 -->
<g id="edge17" class="edge">
<title>node18&#45;&gt;node19</title>
<path fill="none" stroke="#0c0ccc" d="M1100.67,-348.21C1091.24,-335.48 1078.16,-317.84 1067.67,-303.68"/>
<polygon fill="#0c0ccc" stroke="#0c0ccc" points="1069.77,-301.81 1062.75,-297.05 1065.27,-305.14 1069.77,-301.81"/>
<text text-anchor="middle" x="1091.12" y="-318.8" font-family="Times,serif" font-size="14.00">L</text>
</g>
<!-- node22 -->
<g id="node23" class="node">
<title>node22</title>
<ellipse fill="#cfe2ff" stroke="black" cx="1267.12" cy="-279" rx="102.61" ry="18"/>
<text text-anchor="middle" x="1267.12" y="-275.9" font-family="Helvetica,sans-Serif" font-size="12.00">OPERATOR::CONNECTOR</text>
</g>
<!-- node18&#45;&gt;node22 -->
<g id="edge28" class="edge">
<title>node18&#45;&gt;node22</title>
<path fill="none" stroke="#3dad3d" d="M1141.72,-349.21C1166.8,-335.37 1203.38,-315.18 1230.57,-300.17"/>
<polygon fill="#3dad3d" stroke="#3dad3d" points="1231.97,-302.6 1237.62,-296.28 1229.26,-297.7 1231.97,-302.6"/>
<text text-anchor="middle" x="1205.62" y="-318.8" font-family="Times,serif" font-size="14.00">R</text>
</g>
<!-- node20 -->
<g id="node21" class="node">
<title>node20</title>
<polygon fill="#d4f8d4" stroke="black" points="1007.12,-210 980.12,-192 1007.12,-174 1034.12,-192 1007.12,-210"/>
<text text-anchor="middle" x="1007.12" y="-189.5" font-family="Helvetica,sans-Serif" font-size="10.00">i</text>
</g>
<!-- node19&#45;&gt;node20 -->
<g id="edge15" class="edge">
<title>node19&#45;&gt;node20</title>
<path fill="none" stroke="#0c0ccc" d="M1041.42,-260.8C1034.46,-247.05 1024.69,-227.74 1017.36,-213.24"/>
<polygon fill="#0c0ccc" stroke="#0c0ccc" points="1019.68,-211.62 1013.57,-205.75 1014.68,-214.15 1019.68,-211.62"/>
<text text-anchor="middle" x="1037.12" y="-231.8" font-family="Times,serif" font-size="14.00">L</text>
</g>
<!-- node21 -->
<g id="node22" class="node">
<title>node21</title>
<polygon fill="#d4f8d4" stroke="black" points="1079.12,-210 1052.12,-192 1079.12,-174 1106.12,-192 1079.12,-210"/>
<text text-anchor="middle" x="1079.12" y="-189.5" font-family="Helvetica,sans-Serif" font-size="10.00">n</text>
</g>
<!-- node19&#45;&gt;node21 -->
<g id="edge16" class="edge">
<title>node19&#45;&gt;node21</title>
<path fill="none" stroke="#3dad3d" d="M1055.99,-260.8C1060.5,-247.58 1066.76,-229.22 1071.63,-214.95"/>
<polygon fill="#3dad3d" stroke="#3dad3d" points="1074.38,-215.56 1074.31,-207.08 1069.08,-213.75 1074.38,-215.56"/>
<text text-anchor="middle" x="1072.62" y="-231.8" font-family="Times,serif" font-size="14.00">R</text>
</g>
<!-- node23 -->
<g id="node24" class="node">
<title>node23</title>
<ellipse fill="#cfe2ff" stroke="black" cx="1228.12" cy="-192" rx="104.07" ry="18"/>
<text text-anchor="middle" x="1228.12" y="-188.9" font-family="Helvetica,sans-Serif" font-size="12.00">OPERATOR::ASSIGNMENT</text>
</g>
<!-- node22&#45;&gt;node23 -->
<g id="edge22" class="edge">
<title>node22&#45;&gt;node23</title>
<path fill="none" stroke="#0c0ccc" d="M1259.23,-260.8C1253.52,-248.36 1245.72,-231.36 1239.36,-217.5"/>
<polygon fill="#0c0ccc" stroke="#0c0ccc" points="1241.88,-216.28 1236,-210.18 1236.79,-218.61 1241.88,-216.28"/>
<text text-anchor="middle" x="1255.12" y="-231.8" font-family="Times,serif" font-size="14.00">L</text>
</g>
<!-- node28 -->
<g id="node29" class="node">
<title>node28</title>
<ellipse fill="#cfe2ff" stroke="black" cx="1454.12" cy="-192" rx="104.07" ry="18"/>
<text text-anchor="middle" x="1454.12" y="-188.9" font-family="Helvetica,sans-Serif" font-size="12.00">OPERATOR::ASSIGNMENT</text>
</g>
<!-- node22&#45;&gt;node28 -->
<g id="edge27" class="edge">
<title>node22&#45;&gt;node28</title>
<path fill="none" stroke="#3dad3d" d="M1302.29,-262.01C1333.14,-247.99 1378.11,-227.55 1411.09,-212.56"/>
<polygon fill="#3dad3d" stroke="#3dad3d" points="1412.66,-214.92 1418.78,-209.06 1410.34,-209.82 1412.66,-214.92"/>
<text text-anchor="middle" x="1377.62" y="-231.8" font-family="Times,serif" font-size="14.00">R</text>
</g>
<!-- node24 -->
<g id="node25" class="node">
<title>node24</title>
<polygon fill="#d4f8d4" stroke="black" points="1164.12,-123 1127.36,-105 1164.12,-87 1200.88,-105 1164.12,-123"/>
<text text-anchor="middle" x="1164.12" y="-102.5" font-family="Helvetica,sans-Serif" font-size="10.00">result</text>
</g>
<!-- node23&#45;&gt;node24 -->
<g id="edge18" class="edge">
<title>node23&#45;&gt;node24</title>
<path fill="none" stroke="#0c0ccc" d="M1215.17,-173.8C1204.56,-159.71 1189.55,-139.78 1178.56,-125.18"/>
<polygon fill="#0c0ccc" stroke="#0c0ccc" points="1180.57,-123.19 1173.52,-118.49 1176.1,-126.56 1180.57,-123.19"/>
<text text-anchor="middle" x="1205.12" y="-144.8" font-family="Times,serif" font-size="14.00">L</text>
</g>
<!-- node25 -->
<g id="node26" class="node">
<title>node25</title>
<ellipse fill="#cfe2ff" stroke="black" cx="1290.12" cy="-105" rx="71.32" ry="18"/>
<text text-anchor="middle" x="1290.12" y="-101.9" font-family="Helvetica,sans-Serif" font-size="12.00">OPERATOR::MUL</text>
</g>
<!-- node23&#45;&gt;node25 -->
<g id="edge21" class="edge">
<title>node23&#45;&gt;node25</title>
<path fill="none" stroke="#3dad3d" d="M1240.66,-173.8C1249.97,-161.04 1262.76,-143.5 1273,-129.46"/>
<polygon fill="#3dad3d" stroke="#3dad3d" points="1275.35,-131 1277.8,-122.89 1270.82,-127.7 1275.35,-131"/>
<text text-anchor="middle" x="1268.62" y="-144.8" font-family="Times,serif" font-size="14.00">R</text>
</g>
<!-- node26 -->
<g id="node27" class="node">
<title>node26</title>
<polygon fill="#d4f8d4" stroke="black" points="1249.12,-36 1212.36,-18 1249.12,0 1285.88,-18 1249.12,-36"/>
<text text-anchor="middle" x="1249.12" y="-15.5" font-family="Helvetica,sans-Serif" font-size="10.00">result</text>
</g>
<!-- node25&#45;&gt;node26 -->
<g id="edge19" class="edge">
<title>node25&#45;&gt;node26</title>
<path fill="none" stroke="#0c0ccc" d="M1281.82,-86.8C1275.34,-73.37 1266.31,-54.65 1259.38,-40.28"/>
<polygon fill="#0c0ccc" stroke="#0c0ccc" points="1261.78,-38.8 1255.78,-32.81 1256.73,-41.23 1261.78,-38.8"/>
<text text-anchor="middle" x="1277.12" y="-57.8" font-family="Times,serif" font-size="14.00">L</text>
</g>
<!-- node27 -->
<g id="node28" class="node">
<title>node27</title>
<polygon fill="#d4f8d4" stroke="black" points="1331.12,-36 1304.12,-18 1331.12,0 1358.12,-18 1331.12,-36"/>
<text text-anchor="middle" x="1331.12" y="-15.5" font-family="Helvetica,sans-Serif" font-size="10.00">i</text>
</g>
<!-- node25&#45;&gt;node27 -->
<g id="edge20" class="edge">
<title>node25&#45;&gt;node27</title>
<path fill="none" stroke="#3dad3d" d="M1298.41,-86.8C1305.01,-73.13 1314.25,-53.97 1321.23,-39.5"/>
<polygon fill="#3dad3d" stroke="#3dad3d" points="1323.89,-40.43 1324.84,-32.01 1318.84,-38 1323.89,-40.43"/>
<text text-anchor="middle" x="1318.62" y="-57.8" font-family="Times,serif" font-size="14.00">R</text>
</g>
<!-- node29 -->
<g id="node30" class="node">
<title>node29</title>
<polygon fill="#d4f8d4" stroke="black" points="1438.12,-123 1411.12,-105 1438.12,-87 1465.12,-105 1438.12,-123"/>
<text text-anchor="middle" x="1438.12" y="-102.5" font-family="Helvetica,sans-Serif" font-size="10.00">i</text>
</g>
<!-- node28&#45;&gt;node29 -->
<g id="edge23" class="edge">
<title>node28&#45;&gt;node29</title>
<path fill="none" stroke="#0c0ccc" d="M1450.88,-173.8C1448.47,-161.02 1445.17,-143.45 1442.52,-129.4"/>
<polygon fill="#0c0ccc" stroke="#0c0ccc" points="1445.21,-128.52 1440.97,-121.18 1439.7,-129.56 1445.21,-128.52"/>
<text text-anchor="middle" x="1452.12" y="-144.8" font-family="Times,serif" font-size="14.00">L</text>
</g>
<!-- node30 -->
<g id="node31" class="node">
<title>node30</title>
<ellipse fill="#cfe2ff" stroke="black" cx="1554.12" cy="-105" rx="71.32" ry="18"/>
<text text-anchor="middle" x="1554.12" y="-101.9" font-family="Helvetica,sans-Serif" font-size="12.00">OPERATOR::ADD</text>
</g>
<!-- node28&#45;&gt;node30 -->
<g id="edge26" class="edge">
<title>node28&#45;&gt;node30</title>
<path fill="none" stroke="#3dad3d" d="M1473.87,-174.21C1489.45,-160.97 1511.3,-142.39 1528.27,-127.97"/>
<polygon fill="#3dad3d" stroke="#3dad3d" points="1530.46,-129.78 1534.74,-122.47 1526.83,-125.52 1530.46,-129.78"/>
<text text-anchor="middle" x="1515.62" y="-144.8" font-family="Times,serif" font-size="14.00">R</text>
</g>
<!-- node31 -->
<g id="node32" class="node">
<title>node31</title>
<polygon fill="#d4f8d4" stroke="black" points="1518.12,-36 1491.12,-18 1518.12,0 1545.12,-18 1518.12,-36"/>
<text text-anchor="middle" x="1518.12" y="-15.5" font-family="Helvetica,sans-Serif" font-size="10.00">i</text>
</g>
<!-- node30&#45;&gt;node31 -->
<g id="edge24" class="edge">
<title>node30&#45;&gt;node31</title>
<path fill="none" stroke="#0c0ccc" d="M1546.83,-86.8C1541.08,-73.21 1533.02,-54.2 1526.91,-39.76"/>
<polygon fill="#0c0ccc" stroke="#0c0ccc" points="1529.44,-38.55 1523.74,-32.28 1524.28,-40.73 1529.44,-38.55"/>
<text text-anchor="middle" x="1544.12" y="-57.8" font-family="Times,serif" font-size="14.00">L</text>
</g>
<!-- node32 -->
<g id="node33" class="node">
<title>node32</title>
<polygon fill="#fff2cc" stroke="black" points="1617.12,-36 1563.12,-36 1563.12,0 1617.12,0 1617.12,-36"/>
<text text-anchor="middle" x="1590.12" y="-15.5" font-family="Helvetica,sans-Serif" font-size="10.00">1</text>
</g>
<!-- node30&#45;&gt;node32 -->
<g id="edge25" class="edge">
<title>node30&#45;&gt;node32</title>
<path fill="none" stroke="#3dad3d" d="M1561.4,-86.8C1566.62,-74.47 1573.74,-57.68 1579.58,-43.89"/>
<polygon fill="#3dad3d" stroke="#3dad3d" points="1582.3,-44.63 1582.84,-36.18 1577.14,-42.45 1582.3,-44.63"/>
<text text-anchor="middle" x="1580.62" y="-57.8" font-family="Times,serif" font-size="14.00">R</text>
</g>
<!-- node34 -->
<g id="node35" class="node">
<title>node34</title>
<polygon fill="#d4f8d4" stroke="black" points="1469.12,-384 1432.36,-366 1469.12,-348 1505.88,-366 1469.12,-384"/>
<text text-anchor="middle" x="1469.12" y="-363.5" font-family="Helvetica,sans-Serif" font-size="10.00">result</text>
</g>
<!-- node33&#45;&gt;node34 -->
<g id="edge31" class="edge">
<title>node33&#45;&gt;node34</title>
<path fill="none" stroke="#0c0ccc" d="M1469.12,-434.8C1469.12,-422.59 1469.12,-405.99 1469.12,-392.28"/>
<polygon fill="#0c0ccc" stroke="#0c0ccc" points="1471.92,-392.18 1469.12,-384.18 1466.32,-392.18 1471.92,-392.18"/>
<text text-anchor="middle" x="1474.12" y="-405.8" font-family="Times,serif" font-size="14.00">L</text>
</g>
<!-- node36 -->
<g id="node37" class="node">
<title>node36</title>
<ellipse fill="#cfe2ff" stroke="black" cx="1926.12" cy="-540" rx="102.61" ry="18"/>
<text text-anchor="middle" x="1926.12" y="-536.9" font-family="Helvetica,sans-Serif" font-size="12.00">OPERATOR::CONNECTOR</text>
</g>
<!-- node35&#45;&gt;node36 -->
<g id="edge51" class="edge">
<title>node35&#45;&gt;node36</title>
<path fill="none" stroke="#0c0ccc" d="M1926.12,-608.8C1926.12,-596.59 1926.12,-579.99 1926.12,-566.28"/>
<polygon fill="#0c0ccc" stroke="#0c0ccc" points="1928.92,-566.18 1926.12,-558.18 1923.32,-566.18 1928.92,-566.18"/>
<text text-anchor="middle" x="1931.12" y="-579.8" font-family="Times,serif" font-size="14.00">L</text>
</g>
<!-- node53 -->
<g id="node54" class="node">
<title>node53</title>
<ellipse fill="#cfe2ff" stroke="black" cx="2138.12" cy="-540" rx="71.32" ry="18"/>
<text text-anchor="middle" x="2138.12" y="-536.9" font-family="Helvetica,sans-Serif" font-size="12.00">OPERATOR::OUT</text>
</g>
<!-- node35&#45;&gt;node53 -->
<g id="edge53" class="edge">
<title>node35&#45;&gt;node53</title>
<path fill="none" stroke="#3dad3d" d="M1965.5,-610.21C2001.94,-595.6 2056.05,-573.9 2093.95,-558.71"/>
<polygon fill="#3dad3d" stroke="#3dad3d" points="2095.4,-561.15 2101.78,-555.57 2093.31,-555.95 2095.4,-561.15"/>
<text text-anchor="middle" x="2050.62" y="-579.8" font-family="Times,serif" font-size="14.00">R</text>
</g>
<!-- node37 -->
<g id="node38" class="node">
<title>node37</title>
<ellipse fill="#cfe2ff" stroke="black" cx="1850.12" cy="-453" rx="102.61" ry="18"/>
<text text-anchor="middle" x="1850.12" y="-449.9" font-family="Helvetica,sans-Serif" font-size="12.00">OPERATOR::CONNECTOR</text>
</g>
<!-- node36&#45;&gt;node37 -->
<g id="edge48" class="edge">
<title>node36&#45;&gt;node37</title>
<path fill="none" stroke="#0c0ccc" d="M1910.74,-521.8C1899.23,-508.93 1883.37,-491.19 1870.75,-477.08"/>
<polygon fill="#0c0ccc" stroke="#0c0ccc" points="1872.63,-474.98 1865.21,-470.89 1868.46,-478.72 1872.63,-474.98"/>
<text text-anchor="middle" x="1898.12" y="-492.8" font-family="Times,serif" font-size="14.00">L</text>
</g>
<!-- node51 -->
<g id="node52" class="node">
<title>node51</title>
<ellipse fill="#cfe2ff" stroke="black" cx="2042.12" cy="-453" rx="71.32" ry="18"/>
<text text-anchor="middle" x="2042.12" y="-449.9" font-family="Helvetica,sans-Serif" font-size="12.00">OPERATOR::OUT</text>
</g>
<!-- node36&#45;&gt;node51 -->
<g id="edge50" class="edge">
<title>node36&#45;&gt;node51</title>
<path fill="none" stroke="#3dad3d" d="M1948.76,-522.41C1967.24,-508.87 1993.47,-489.65 2013.42,-475.03"/>
<polygon fill="#3dad3d" stroke="#3dad3d" points="2015.13,-477.25 2019.93,-470.26 2011.82,-472.73 2015.13,-477.25"/>
<text text-anchor="middle" x="1996.62" y="-492.8" font-family="Times,serif" font-size="14.00">R</text>
</g>
<!-- node38 -->
<g id="node39" class="node">
<title>node38</title>
<ellipse fill="#cfe2ff" stroke="black" cx="1705.12" cy="-366" rx="102.61" ry="18"/>
<text text-anchor="middle" x="1705.12" y="-362.9" font-family="Helvetica,sans-Serif" font-size="12.00">OPERATOR::CONNECTOR</text>
</g>
<!-- node37&#45;&gt;node38 -->
<g id="edge39" class="edge">
<title>node37&#45;&gt;node38</title>
<path fill="none" stroke="#0c0ccc" d="M1822.16,-435.61C1798.79,-421.91 1765.34,-402.3 1740.18,-387.55"/>
<polygon fill="#0c0ccc" stroke="#0c0ccc" points="1741.31,-384.97 1732.99,-383.34 1738.47,-389.8 1741.31,-384.97"/>
<text text-anchor="middle" x="1792.12" y="-405.8" font-family="Times,serif" font-size="14.00">L</text>
</g>
<!-- node43 -->
<g id="node44" class="node">
<title>node43</title>
<ellipse fill="#cfe2ff" stroke="black" cx="1929.12" cy="-366" rx="102.61" ry="18"/>
<text text-anchor="middle" x="1929.12" y="-362.9" font-family="Helvetica,sans-Serif" font-size="12.00">OPERATOR::CONNECTOR</text>
</g>
<!-- node37&#45;&gt;node43 -->
<g id="edge47" class="edge">
<title>node37&#45;&gt;node43</title>
<path fill="none" stroke="#3dad3d" d="M1865.73,-435.21C1877.77,-422.25 1894.55,-404.19 1907.82,-389.91"/>
<polygon fill="#3dad3d" stroke="#3dad3d" points="1909.88,-391.82 1913.27,-384.05 1905.77,-388 1909.88,-391.82"/>
<text text-anchor="middle" x="1900.62" y="-405.8" font-family="Times,serif" font-size="14.00">R</text>
</g>
<!-- node39 -->
<g id="node40" class="node">
<title>node39</title>
<ellipse fill="#ffd9b3" stroke="black" cx="1521.12" cy="-279" rx="123.23" ry="18"/>
<text text-anchor="middle" x="1521.12" y="-275.9" font-family="Helvetica,sans-Serif" font-size="12.00">KEYWORD::VAR_DECLARATION</text>
</g>
<!-- node38&#45;&gt;node39 -->
<g id="edge36" class="edge">
<title>node38&#45;&gt;node39</title>
<path fill="none" stroke="#0c0ccc" d="M1670.51,-349.01C1640.34,-335.08 1596.47,-314.81 1564.07,-299.84"/>
<polygon fill="#0c0ccc" stroke="#0c0ccc" points="1564.95,-297.16 1556.51,-296.35 1562.6,-302.25 1564.95,-297.16"/>
<text text-anchor="middle" x="1630.12" y="-318.8" font-family="Times,serif" font-size="14.00">L</text>
</g>
<!-- node41 -->
<g id="node42" class="node">
<title>node41</title>
<ellipse fill="#cfe2ff" stroke="black" cx="1725.12" cy="-279" rx="62.58" ry="18"/>
<text text-anchor="middle" x="1725.12" y="-275.9" font-family="Helvetica,sans-Serif" font-size="12.00">OPERATOR::IN</text>
</g>
<!-- node38&#45;&gt;node41 -->
<g id="edge38" class="edge">
<title>node38&#45;&gt;node41</title>
<path fill="none" stroke="#3dad3d" d="M1709.16,-347.8C1712.04,-335.59 1715.94,-318.99 1719.17,-305.28"/>
<polygon fill="#3dad3d" stroke="#3dad3d" points="1721.97,-305.6 1721.08,-297.18 1716.52,-304.32 1721.97,-305.6"/>
<text text-anchor="middle" x="1722.62" y="-318.8" font-family="Times,serif" font-size="14.00">R</text>
</g>
<!-- node40 -->
<g id="node41" class="node">
<title>node40</title>
<polygon fill="#d4f8d4" stroke="black" points="1610.12,-210 1575.85,-192 1610.12,-174 1644.38,-192 1610.12,-210"/>
<text text-anchor="middle" x="1610.12" y="-189.5" font-family="Helvetica,sans-Serif" font-size="10.00">input</text>
</g>
<!-- node39&#45;&gt;node40 -->
<g id="edge35" class="edge">
<title>node39&#45;&gt;node40</title>
<path fill="none" stroke="#0c0ccc" d="M1539.13,-260.8C1554.68,-245.94 1577.03,-224.6 1592.48,-209.85"/>
<polygon fill="#0c0ccc" stroke="#0c0ccc" points="1594.78,-211.52 1598.63,-203.97 1590.91,-207.47 1594.78,-211.52"/>
<text text-anchor="middle" x="1576.12" y="-231.8" font-family="Times,serif" font-size="14.00">L</text>
</g>
<!-- node42 -->
<g id="node43" class="node">
<title>node42</title>
<polygon fill="#d4f8d4" stroke="black" points="1725.12,-210 1690.85,-192 1725.12,-174 1759.38,-192 1725.12,-210"/>
<text text-anchor="middle" x="1725.12" y="-189.5" font-family="Helvetica,sans-Serif" font-size="10.00">input</text>
</g>
<!-- node41&#45;&gt;node42 -->
<g id="edge37" class="edge">
<title>node41&#45;&gt;node42</title>
<path fill="none" stroke="#0c0ccc" d="M1725.12,-260.8C1725.12,-248.59 1725.12,-231.99 1725.12,-218.28"/>
<polygon fill="#0c0ccc" stroke="#0c0ccc" points="1727.92,-218.18 1725.12,-210.18 1722.32,-218.18 1727.92,-218.18"/>
<text text-anchor="middle" x="1730.12" y="-231.8" font-family="Times,serif" font-size="14.00">L</text>
</g>
<!-- node44 -->
<g id="node45" class="node">
<title>node44</title>
<ellipse fill="#ffd9b3" stroke="black" cx="1929.12" cy="-279" rx="123.23" ry="18"/>
<text text-anchor="middle" x="1929.12" y="-275.9" font-family="Helvetica,sans-Serif" font-size="12.00">KEYWORD::VAR_DECLARATION</text>
</g>
<!-- node43&#45;&gt;node44 -->
<g id="edge41" class="edge">
<title>node43&#45;&gt;node44</title>
<path fill="none" stroke="#0c0ccc" d="M1929.12,-347.8C1929.12,-335.59 1929.12,-318.99 1929.12,-305.28"/>
<polygon fill="#0c0ccc" stroke="#0c0ccc" points="1931.92,-305.18 1929.12,-297.18 1926.32,-305.18 1931.92,-305.18"/>
<text text-anchor="middle" x="1934.12" y="-318.8" font-family="Times,serif" font-size="14.00">L</text>
</g>
<!-- node46 -->
<g id="node47" class="node">
<title>node46</title>
<ellipse fill="#cfe2ff" stroke="black" cx="2174.12" cy="-279" rx="104.07" ry="18"/>
<text text-anchor="middle" x="2174.12" y="-275.9" font-family="Helvetica,sans-Serif" font-size="12.00">OPERATOR::ASSIGNMENT</text>
</g>
<!-- node43&#45;&gt;node46 -->
<g id="edge46" class="edge">
<title>node43&#45;&gt;node46</title>
<path fill="none" stroke="#3dad3d" d="M1973.2,-349.71C2015.05,-335.19 2077.96,-313.36 2122.21,-298.01"/>
<polygon fill="#3dad3d" stroke="#3dad3d" points="2123.33,-300.58 2129.97,-295.31 2121.5,-295.29 2123.33,-300.58"/>
<text text-anchor="middle" x="2072.62" y="-318.8" font-family="Times,serif" font-size="14.00">R</text>
</g>
<!-- node45 -->
<g id="node46" class="node">
<title>node45</title>
<polygon fill="#d4f8d4" stroke="black" points="1929.12,-210 1881.71,-192 1929.12,-174 1976.52,-192 1929.12,-210"/>
<text text-anchor="middle" x="1929.12" y="-189.5" font-family="Helvetica,sans-Serif" font-size="10.00">factorial</text>
</g>
<!-- node44&#45;&gt;node45 -->
<g id="edge40" class="edge">
<title>node44&#45;&gt;node45</title>
<path fill="none" stroke="#0c0ccc" d="M1929.12,-260.8C1929.12,-248.59 1929.12,-231.99 1929.12,-218.28"/>
<polygon fill="#0c0ccc" stroke="#0c0ccc" points="1931.92,-218.18 1929.12,-210.18 1926.32,-218.18 1931.92,-218.18"/>
<text text-anchor="middle" x="1934.12" y="-231.8" font-family="Times,serif" font-size="14.00">L</text>
</g>
<!-- node47 -->
<g id="node48" class="node">
<title>node47</title>
<polygon fill="#d4f8d4" stroke="black" points="2108.12,-210 2060.71,-192 2108.12,-174 2155.52,-192 2108.12,-210"/>
<text text-anchor="middle" x="2108.12" y="-189.5" font-family="Helvetica,sans-Serif" font-size="10.00">factorial</text>
</g>
<!-- node46&#45;&gt;node47 -->
<g id="edge42" class="edge">
<title>node46&#45;&gt;node47</title>
<path fill="none" stroke="#0c0ccc" d="M2160.76,-260.8C2150.01,-246.96 2134.9,-227.49 2123.62,-212.96"/>
<polygon fill="#0c0ccc" stroke="#0c0ccc" points="2125.54,-210.88 2118.43,-206.28 2121.12,-214.31 2125.54,-210.88"/>
<text text-anchor="middle" x="2150.12" y="-231.8" font-family="Times,serif" font-size="14.00">L</text>
</g>
<!-- node48 -->
<g id="node49" class="node">
<title>node48</title>
<ellipse fill="#ffd9b3" stroke="black" cx="2269.12" cy="-192" rx="95.33" ry="18"/>
<text text-anchor="middle" x="2269.12" y="-188.9" font-family="Helvetica,sans-Serif" font-size="12.00">KEYWORD::FUNC_CALL</text>
</g>
<!-- node46&#45;&gt;node48 -->
<g id="edge45" class="edge">
<title>node46&#45;&gt;node48</title>
<path fill="none" stroke="#3dad3d" d="M2192.89,-261.21C2207.59,-248.05 2228.18,-229.63 2244.25,-215.25"/>
<polygon fill="#3dad3d" stroke="#3dad3d" points="2246.29,-217.18 2250.39,-209.76 2242.56,-213.01 2246.29,-217.18"/>
<text text-anchor="middle" x="2232.62" y="-231.8" font-family="Times,serif" font-size="14.00">R</text>
</g>
<!-- node49 -->
<g id="node50" class="node">
<title>node49</title>
<polygon fill="#d4f8d4" stroke="black" points="2219.12,-123 2171.71,-105 2219.12,-87 2266.52,-105 2219.12,-123"/>
<text text-anchor="middle" x="2219.12" y="-102.5" font-family="Helvetica,sans-Serif" font-size="10.00">factorial</text>
</g>
<!-- node48&#45;&gt;node49 -->
<g id="edge43" class="edge">
<title>node48&#45;&gt;node49</title>
<path fill="none" stroke="#0c0ccc" d="M2259,-173.8C2251.08,-160.33 2240.02,-141.54 2231.56,-127.15"/>
<polygon fill="#0c0ccc" stroke="#0c0ccc" points="2233.87,-125.56 2227.4,-120.08 2229.04,-128.4 2233.87,-125.56"/>
<text text-anchor="middle" x="2251.12" y="-144.8" font-family="Times,serif" font-size="14.00">L</text>
</g>
<!-- node50 -->
<g id="node51" class="node">
<title>node50</title>
<polygon fill="#d4f8d4" stroke="black" points="2319.12,-123 2284.85,-105 2319.12,-87 2353.38,-105 2319.12,-123"/>
<text text-anchor="middle" x="2319.12" y="-102.5" font-family="Helvetica,sans-Serif" font-size="10.00">input</text>
</g>
<!-- node48&#45;&gt;node50 -->
<g id="edge44" class="edge">
<title>node48&#45;&gt;node50</title>
<path fill="none" stroke="#3dad3d" d="M2279.24,-173.8C2287.35,-160 2298.76,-140.61 2307.29,-126.1"/>
<polygon fill="#3dad3d" stroke="#3dad3d" points="2309.82,-127.33 2311.46,-119.01 2304.99,-124.49 2309.82,-127.33"/>
<text text-anchor="middle" x="2301.62" y="-144.8" font-family="Times,serif" font-size="14.00">R</text>
</g>
<!-- node52 -->
<g id="node53" class="node">
<title>node52</title>
<polygon fill="#d4f8d4" stroke="black" points="2097.12,-384 2049.71,-366 2097.12,-348 2144.52,-366 2097.12,-384"/>
<text text-anchor="middle" x="2097.12" y="-363.5" font-family="Helvetica,sans-Serif" font-size="10.00">factorial</text>
</g>
<!-- node51&#45;&gt;node52 -->
<g id="edge49" class="edge">
<title>node51&#45;&gt;node52</title>
<path fill="none" stroke="#0c0ccc" d="M2052.98,-435.21C2061.86,-421.49 2074.45,-402.04 2083.91,-387.42"/>
<polygon fill="#0c0ccc" stroke="#0c0ccc" points="2086.27,-388.91 2088.27,-380.68 2081.57,-385.87 2086.27,-388.91"/>
<text text-anchor="middle" x="2078.12" y="-405.8" font-family="Times,serif" font-size="14.00">L</text>
</g>
<!-- node54 -->
<g id="node55" class="node">
<title>node54</title>
<polygon fill="#fff2cc" stroke="black" points="2185.12,-471 2131.12,-471 2131.12,-435 2185.12,-435 2185.12,-471"/>
<text text-anchor="middle" x="2158.12" y="-450.5" font-family="Helvetica,sans-Serif" font-size="10.00">1</text>
</g>
<!-- node53&#45;&gt;node54 -->
<g id="edge52" class="edge">
<title>node53&#45;&gt;node54</title>
<path fill="none" stroke="#0c0ccc" d="M2142.16,-521.8C2145.04,-509.59 2148.94,-492.99 2152.17,-479.28"/>
<polygon fill="#0c0ccc" stroke="#0c0ccc" points="2154.97,-479.6 2154.08,-471.18 2149.52,-478.32 2154.97,-479.6"/>
<text text-anchor="middle" x="2155.12" y="-492.8" font-family="Times,serif" font-size="14.00">L</text>
</g>
</g>
</svg>
